<?xml version="1.0" encoding="UTF-8"?>
<svg width="211px" height="88px" viewBox="0 0 211 88" version="1.1" xmlns="http://www.w3.org/2000/svg" xmlns:xlink="http://www.w3.org/1999/xlink">
    <title>eikon_full</title>
    <defs>
        <polygon id="path-1" points="0 88 210.889868 88 210.889868 0 0 0"></polygon>
        <polygon id="path-3" points="0 88 210.889868 88 210.889868 0 0 0"></polygon>
    </defs>
    <g id="Page-1" stroke="none" stroke-width="1" fill="none" fill-rule="evenodd">
        <g id="home-Page" transform="translate(-397.000000, -7486.000000)">
            <g id="partenaires" transform="translate(-74.000000, 7383.000000)">
                <g id="eikon_full" transform="translate(471.000000, 103.000000)">
                    <polygon id="Path" fill="#FFFFFF" points="1.19917768 50.0940969 1.19917768 58.3642878 5.98038179 58.3642878 5.98038179 57.2012922 2.49139501 57.2012922 2.49139501 54.875301 5.85116006 54.875301 5.85116006 53.7123054 2.49139501 53.7123054 2.49139501 51.3863142 5.85116006 51.3863142 5.85116006 50.2233186 1.19917768 50.2233186"></polygon>
                    <g id="Group">
                        <path d="M11.3715125,54.7900147 C11.2422907,54.143906 10.9838473,53.7562408 10.0792952,53.7562408 C9.04552129,53.7562408 8.65785609,54.5315712 8.65785609,55.4361233 C8.65785609,56.3406755 9.04552129,57.1160059 10.2085169,57.1160059 C10.9838473,57.1160059 11.2422907,56.7283407 11.3715125,56.2114537 L12.6637298,56.2114537 C12.5345081,57.3744493 11.6299559,58.2790015 10.0792952,58.2790015 C8.2701909,58.2790015 7.36563877,56.8575624 7.36563877,55.4361233 C7.36563877,54.0146843 8.2701909,52.5932452 10.0792952,52.5932452 C11.8883994,52.5932452 12.5345081,53.6270191 12.6637298,54.7900147 C12.6637298,54.7900147 11.3715125,54.7900147 11.3715125,54.7900147 Z M18.2202643,55.5653451 C18.2202643,54.660793 17.5741557,53.8854626 16.5403818,53.8854626 C15.6358297,53.8854626 14.989721,54.660793 14.989721,55.5653451 C14.989721,56.4698972 15.6358297,57.2452276 16.5403818,57.2452276 C17.5741557,57.2452276 18.2202643,56.4698972 18.2202643,55.5653451 M13.6975037,55.5653451 C13.6975037,54.0146843 14.8604993,52.722467 16.5403818,52.722467 C18.349486,52.722467 19.3832599,54.0146843 19.3832599,55.5653451 C19.3832599,57.1160059 18.2202643,58.4082232 16.5403818,58.4082232 C14.8604993,58.4082232 13.6975037,57.1160059 13.6975037,55.5653451" id="Shape" fill="#FFFFFF"></path>
                        <g id="Clipped">
                            <mask id="mask-2" fill="white">
                                <use xlink:href="#path-1"></use>
                            </mask>
                            <g id="a_00000151503309647305106420000010144425527753412756_"></g>
                            <path d="M20.9339207,58.2790015 L22.226138,58.2790015 L22.226138,50.0088106 L20.9339207,50.0088106 L20.9339207,58.2790015 Z M24.9397944,54.9192364 L27.6534508,54.9192364 C27.6534508,54.143906 27.1365639,53.6270191 26.3612335,53.6270191 C25.5859031,53.6270191 24.9397944,54.0146843 24.9397944,54.9192364 Z M24.9397944,55.9530103 C24.9397944,56.7283407 25.3274596,57.3744493 26.3612335,57.3744493 C27.1365639,57.3744493 27.3950073,56.9867841 27.5242291,56.5991189 L28.8164464,56.5991189 C28.6872247,57.5036711 27.7826725,58.4082232 26.3612335,58.4082232 C24.5521292,58.4082232 23.6475771,57.1160059 23.6475771,55.5653451 C23.6475771,53.8854626 24.681351,52.722467 26.3612335,52.722467 C27.7826725,52.722467 28.9456681,53.7562408 28.9456681,55.1776799 C28.9456681,55.3069016 28.9456681,55.5653451 28.9456681,55.9530103 C28.8164464,55.9530103 24.9397944,55.9530103 24.9397944,55.9530103 Z M34.2437592,55.5653451 C34.2437592,56.4698972 34.8898678,57.2452276 35.9236417,57.2452276 C36.8281938,57.2452276 37.4743025,56.4698972 37.4743025,55.5653451 C37.4743025,54.660793 36.8281938,53.8854626 35.9236417,53.8854626 C34.8898678,53.7562408 34.2437592,54.5315712 34.2437592,55.5653451 Z M34.2437592,53.4977974 C34.6314244,52.9809104 35.277533,52.5932452 35.9236417,52.5932452 C37.6035242,52.5932452 38.7665198,53.8854626 38.7665198,55.4361233 C38.7665198,56.9867841 37.6035242,58.2790015 35.9236417,58.2790015 C35.277533,58.2790015 34.6314244,57.8913363 34.2437592,57.3744493 L34.2437592,60.8634361 L32.9515419,60.8634361 L32.9515419,52.5932452 L34.2437592,52.5932452 L34.2437592,53.4977974 L34.2437592,53.4977974 Z M43.6769457,54.0146843 C43.5477239,54.0146843 43.2892805,54.0146843 43.1600587,54.0146843 C42.1262849,54.0146843 41.4801762,54.660793 41.4801762,55.9530103 L41.4801762,58.2790015 L40.1879589,58.2790015 L40.1879589,52.8516887 L41.4801762,52.8516887 L41.4801762,53.7562408 C41.7386197,53.2393539 42.3847283,52.8516887 43.1600587,52.8516887 C43.4185022,52.8516887 43.5477239,52.8516887 43.6769457,52.9809104 L43.6769457,54.0146843 L43.6769457,54.0146843 Z M48.845815,55.5653451 C48.845815,54.660793 48.1997063,53.8854626 47.1659325,53.8854626 C46.2613803,53.8854626 45.6152717,54.660793 45.6152717,55.5653451 C45.6152717,56.4698972 46.2613803,57.2452276 47.1659325,57.2452276 C48.1997063,57.2452276 48.845815,56.4698972 48.845815,55.5653451 M44.4522761,55.5653451 C44.4522761,54.0146843 45.6152717,52.722467 47.2951542,52.722467 C49.1042584,52.722467 50.1380323,54.0146843 50.1380323,55.5653451 C50.1380323,57.1160059 48.9750367,58.4082232 47.2951542,58.4082232 C45.4860499,58.4082232 44.4522761,57.1160059 44.4522761,55.5653451 M54.7900147,51.1718062 C54.660793,51.1718062 54.4023495,51.0425844 54.2731278,51.0425844 C53.8854626,51.0425844 53.3685756,51.0425844 53.3685756,51.9471366 L53.3685756,52.722467 L54.7900147,52.722467 L54.7900147,53.7562408 L53.3685756,53.7562408 L53.3685756,58.1497797 L52.0763583,58.1497797 L52.0763583,53.7562408 L50.9133627,53.7562408 L50.9133627,52.722467 L52.0763583,52.722467 L52.0763583,52.0763583 C52.0763583,50.0088106 53.3685756,49.8795888 54.0146843,49.8795888 C54.4023495,49.8795888 54.660793,50.0088106 54.7900147,50.0088106 C54.7900147,50.1380323 54.7900147,51.1718062 54.7900147,51.1718062 Z M56.8575624,54.9192364 L59.5712188,54.9192364 C59.5712188,54.143906 59.0543319,53.6270191 58.2790015,53.6270191 C57.5036711,53.6270191 56.8575624,54.0146843 56.8575624,54.9192364 Z M56.8575624,55.9530103 C56.8575624,56.7283407 57.2452276,57.3744493 58.2790015,57.3744493 C59.0543319,57.3744493 59.3127753,56.9867841 59.4419971,56.5991189 L60.7342144,56.5991189 C60.6049927,57.5036711 59.7004405,58.4082232 58.2790015,58.4082232 C56.4698972,58.4082232 55.5653451,57.1160059 55.5653451,55.5653451 C55.5653451,53.8854626 56.5991189,52.722467 58.2790015,52.722467 C59.7004405,52.722467 60.8634361,53.7562408 60.8634361,55.1776799 C60.8634361,55.3069016 60.8634361,55.5653451 60.8634361,55.9530103 L56.8575624,55.9530103 L56.8575624,55.9530103 Z M66.2907489,56.7283407 C66.2907489,57.8913363 65.256975,58.4082232 64.0939794,58.4082232 C62.9309838,58.4082232 61.89721,57.7621145 61.89721,56.4698972 L63.1894273,56.4698972 C63.1894273,57.2452276 63.5770925,57.5036711 64.2232012,57.5036711 C64.7400881,57.5036711 65.1277533,57.3744493 65.1277533,56.8575624 C65.1277533,56.3406755 64.6108664,56.3406755 63.4478708,55.8237885 C62.6725404,55.5653451 62.1556535,55.3069016 62.1556535,54.2731278 C62.1556535,53.2393539 63.0602056,52.722467 64.2232012,52.722467 C65.3861968,52.722467 66.2907489,53.4977974 66.2907489,54.5315712 L64.9985316,54.5315712 C64.9985316,54.0146843 64.7400881,53.6270191 64.0939794,53.6270191 C63.7063142,53.6270191 63.318649,53.8854626 63.318649,54.2731278 C63.318649,54.7900147 63.835536,54.7900147 64.8693098,55.1776799 C65.6446402,55.4361233 66.2907489,55.6945668 66.2907489,56.7283407 M71.8472834,56.7283407 C71.8472834,57.8913363 70.8135095,58.4082232 69.650514,58.4082232 C68.4875184,58.4082232 67.4537445,57.7621145 67.4537445,56.4698972 L68.7459618,56.4698972 C68.7459618,57.2452276 69.133627,57.5036711 69.7797357,57.5036711 C70.2966226,57.5036711 70.6842878,57.3744493 70.6842878,56.8575624 C70.6842878,56.3406755 70.1674009,56.3406755 69.0044053,55.8237885 C68.2290749,55.5653451 67.712188,55.3069016 67.712188,54.2731278 C67.712188,53.2393539 68.6167401,52.722467 69.7797357,52.722467 C70.9427313,52.722467 71.8472834,53.4977974 71.8472834,54.5315712 L70.5550661,54.5315712 C70.5550661,54.0146843 70.2966226,53.6270191 69.650514,53.6270191 C69.2628488,53.6270191 68.8751836,53.8854626 68.8751836,54.2731278 C68.8751836,54.7900147 69.3920705,54.7900147 70.4258443,55.1776799 C71.2011747,55.4361233 71.8472834,55.6945668 71.8472834,56.7283407 M73.3979442,58.2790015 L74.6901615,58.2790015 L74.6901615,52.8516887 L73.3979442,52.8516887 L73.3979442,58.2790015 L73.3979442,58.2790015 Z M74.0440529,49.8795888 C74.5609398,49.8795888 74.948605,50.267254 74.948605,50.784141 C74.948605,51.3010279 74.5609398,51.6886931 74.0440529,51.6886931 L74.0440529,51.6886931 C73.5271659,51.6886931 73.1395007,51.3010279 73.1395007,50.784141 C73.1395007,50.267254 73.5271659,49.8795888 74.0440529,49.8795888 Z M80.5051395,55.5653451 C80.5051395,54.660793 79.8590308,53.8854626 78.825257,53.8854626 C77.9207048,53.8854626 77.2745962,54.660793 77.2745962,55.5653451 C77.2745962,56.4698972 77.9207048,57.2452276 78.825257,57.2452276 C79.8590308,57.2452276 80.5051395,56.4698972 80.5051395,55.5653451 M75.9823789,55.5653451 C75.9823789,54.0146843 77.1453744,52.722467 78.825257,52.722467 C80.6343612,52.722467 81.6681351,54.0146843 81.6681351,55.5653451 C81.6681351,57.1160059 80.5051395,58.4082232 78.825257,58.4082232 C77.1453744,58.4082232 75.9823789,57.1160059 75.9823789,55.5653451 M83.2187959,52.722467 L84.5110132,52.722467 L84.5110132,53.4977974 C84.8986784,52.8516887 85.5447871,52.5932452 86.3201175,52.5932452 C87.0954479,52.5932452 87.6123348,52.8516887 88,53.3685756 C88.2584435,53.7562408 88.3876652,54.2731278 88.3876652,55.0484581 L88.3876652,58.2790015 L87.0954479,58.2790015 L87.0954479,55.4361233 C87.0954479,54.5315712 86.8370044,53.7562408 85.9324523,53.7562408 C85.0279001,53.7562408 84.6402349,54.5315712 84.6402349,55.4361233 L84.6402349,58.2790015 L83.3480176,58.2790015 L83.3480176,52.722467 L83.2187959,52.722467 Z M90.0675477,52.722467 L91.3597651,52.722467 L91.3597651,53.4977974 C91.7474302,52.8516887 92.3935389,52.5932452 93.1688693,52.5932452 C93.9441997,52.5932452 94.4610866,52.8516887 94.8487518,53.3685756 C95.1071953,53.7562408 95.236417,54.2731278 95.236417,55.0484581 L95.236417,58.2790015 L93.9441997,58.2790015 L93.9441997,55.4361233 C93.9441997,54.5315712 93.6857562,53.7562408 92.7812041,53.7562408 C91.876652,53.7562408 91.4889868,54.5315712 91.4889868,55.4361233 L91.4889868,58.2790015 L90.1967695,58.2790015 L90.1967695,52.722467 L90.0675477,52.722467 Z M97.8208517,54.9192364 L100.534508,54.9192364 C100.534508,54.143906 100.017621,53.6270191 99.2422907,53.6270191 C98.4669604,53.6270191 97.8208517,54.0146843 97.8208517,54.9192364 Z M97.8208517,55.9530103 C97.8208517,56.7283407 98.2085169,57.3744493 99.2422907,57.3744493 C100.017621,57.3744493 100.276065,56.9867841 100.405286,56.5991189 L101.697504,56.5991189 C101.568282,57.5036711 100.66373,58.4082232 99.2422907,58.4082232 C97.4331865,58.4082232 96.5286344,57.1160059 96.5286344,55.5653451 C96.5286344,53.8854626 97.5624082,52.722467 99.2422907,52.722467 C100.66373,52.722467 101.826725,53.7562408 101.826725,55.1776799 C101.826725,55.3069016 101.826725,55.5653451 101.826725,55.9530103 L97.8208517,55.9530103 L97.8208517,55.9530103 Z M103.248164,58.2790015 L104.540382,58.2790015 L104.540382,50.0088106 L103.248164,50.0088106 L103.248164,58.2790015 Z M106.349486,58.2790015 L107.641703,58.2790015 L107.641703,50.0088106 L106.349486,50.0088106 L106.349486,58.2790015 Z M110.35536,54.9192364 L113.069016,54.9192364 C113.069016,54.143906 112.552129,53.6270191 111.776799,53.6270191 C111.001468,53.6270191 110.35536,54.0146843 110.35536,54.9192364 Z M110.35536,55.9530103 C110.35536,56.7283407 110.743025,57.3744493 111.776799,57.3744493 C112.552129,57.3744493 112.810573,56.9867841 112.939794,56.5991189 L114.232012,56.5991189 C114.10279,57.5036711 113.198238,58.4082232 111.776799,58.4082232 C109.967695,58.4082232 109.063142,57.1160059 109.063142,55.5653451 C109.063142,53.8854626 110.096916,52.722467 111.776799,52.722467 C113.198238,52.722467 114.361233,53.7562408 114.361233,55.1776799 C114.361233,55.3069016 114.361233,55.5653451 114.361233,55.9530103 L110.35536,55.9530103 L110.35536,55.9530103 Z M119.271659,54.9192364 L121.985316,54.9192364 C121.985316,54.143906 121.468429,53.6270191 120.693098,53.6270191 C119.917768,53.6270191 119.271659,54.0146843 119.271659,54.9192364 Z M119.271659,55.9530103 C119.271659,56.7283407 119.659325,57.3744493 120.693098,57.3744493 C121.468429,57.3744493 121.726872,56.9867841 121.856094,56.5991189 L123.148311,56.5991189 C123.01909,57.5036711 122.114537,58.4082232 120.693098,58.4082232 C118.883994,58.4082232 117.979442,57.1160059 117.979442,55.5653451 C117.979442,53.8854626 119.013216,52.722467 120.693098,52.722467 C122.114537,52.722467 123.277533,53.7562408 123.277533,55.1776799 C123.277533,55.3069016 123.277533,55.5653451 123.277533,55.9530103 L119.271659,55.9530103 L119.271659,55.9530103 Z M124.828194,52.722467 L126.120411,52.722467 L126.120411,53.4977974 C126.508076,52.8516887 127.154185,52.5932452 127.929515,52.5932452 C128.704846,52.5932452 129.221733,52.8516887 129.609398,53.3685756 C129.867841,53.7562408 129.997063,54.2731278 129.997063,55.0484581 L129.997063,58.2790015 L128.704846,58.2790015 L128.704846,55.4361233 C128.704846,54.5315712 128.446402,53.7562408 127.54185,53.7562408 C126.637298,53.7562408 126.249633,54.5315712 126.249633,55.4361233 L126.249633,58.2790015 L124.957416,58.2790015 L124.957416,52.722467 L124.828194,52.722467 Z M138.267254,55.5653451 C138.267254,54.660793 137.621145,53.8854626 136.587372,53.8854626 C135.682819,53.8854626 135.036711,54.660793 135.036711,55.5653451 C135.036711,56.4698972 135.682819,57.2452276 136.587372,57.2452276 C137.621145,57.2452276 138.267254,56.4698972 138.267254,55.5653451 Z M139.559471,52.8516887 L139.559471,58.2790015 L138.267254,58.2790015 L138.267254,57.5036711 C137.879589,58.020558 137.23348,58.4082232 136.587372,58.4082232 C134.907489,58.4082232 133.744493,57.1160059 133.744493,55.5653451 C133.744493,54.0146843 134.907489,52.722467 136.587372,52.722467 C137.23348,52.722467 137.879589,53.1101322 138.267254,53.6270191 L138.267254,52.8516887 C138.267254,52.8516887 139.559471,52.8516887 139.559471,52.8516887 Z M144.857562,54.0146843 C144.728341,54.0146843 144.469897,54.0146843 144.340675,54.0146843 C143.306902,54.0146843 142.660793,54.660793 142.660793,55.9530103 L142.660793,58.2790015 L141.368576,58.2790015 L141.368576,52.8516887 L142.660793,52.8516887 L142.660793,53.7562408 C142.919236,53.2393539 143.565345,52.8516887 144.340675,52.8516887 C144.599119,52.8516887 144.728341,52.8516887 144.857562,52.9809104 C144.857562,52.8516887 144.857562,54.0146843 144.857562,54.0146843 Z M149.251101,58.2790015 C148.992658,58.2790015 148.604993,58.4082232 148.346549,58.4082232 C147.700441,58.4082232 146.537445,58.2790015 146.537445,56.4698972 L146.537445,53.8854626 L145.632893,53.8854626 L145.632893,52.8516887 L146.537445,52.8516887 L146.537445,51.1718062 L147.829662,51.1718062 L147.829662,52.8516887 L149.12188,52.8516887 L149.12188,53.8854626 L147.829662,53.8854626 L147.829662,56.082232 C147.829662,56.9867841 148.088106,57.1160059 148.604993,57.1160059 C148.863436,57.1160059 149.12188,57.1160059 149.251101,57.1160059 L149.251101,58.2790015 L149.251101,58.2790015 Z M154.549192,56.7283407 C154.549192,57.8913363 153.515419,58.4082232 152.352423,58.4082232 C151.189427,58.4082232 150.155653,57.7621145 150.155653,56.4698972 L151.447871,56.4698972 C151.447871,57.2452276 151.835536,57.5036711 152.481645,57.5036711 C152.998532,57.5036711 153.386197,57.3744493 153.386197,56.8575624 C153.386197,56.3406755 152.86931,56.3406755 151.706314,55.8237885 C150.930984,55.5653451 150.414097,55.3069016 150.414097,54.2731278 C150.414097,53.2393539 151.318649,52.722467 152.481645,52.722467 C153.64464,52.722467 154.549192,53.4977974 154.549192,54.5315712 L153.256975,54.5315712 C153.256975,54.0146843 152.998532,53.6270191 152.352423,53.6270191 C151.964758,53.6270191 151.577093,53.8854626 151.577093,54.2731278 C151.577093,54.7900147 152.093979,54.7900147 153.127753,55.1776799 C153.773862,55.4361233 154.549192,55.6945668 154.549192,56.7283407 M162.690162,55.5653451 C162.690162,54.660793 162.044053,53.8854626 161.010279,53.8854626 C160.105727,53.8854626 159.459618,54.660793 159.459618,55.5653451 C159.459618,56.4698972 160.105727,57.2452276 161.010279,57.2452276 C162.044053,57.2452276 162.690162,56.4698972 162.690162,55.5653451 Z M163.982379,52.8516887 L163.982379,58.2790015 L162.690162,58.2790015 L162.690162,57.5036711 C162.302496,58.020558 161.656388,58.4082232 161.010279,58.4082232 C159.330396,58.4082232 158.167401,57.1160059 158.167401,55.5653451 C158.167401,54.0146843 159.330396,52.722467 161.010279,52.722467 C161.656388,52.722467 162.302496,53.1101322 162.690162,53.6270191 L162.690162,52.8516887 C162.690162,52.8516887 163.982379,52.8516887 163.982379,52.8516887 Z M167.0837,55.5653451 C167.0837,56.4698972 167.729809,57.2452276 168.763583,57.2452276 C169.668135,57.2452276 170.314244,56.4698972 170.314244,55.5653451 C170.314244,54.660793 169.668135,53.8854626 168.763583,53.8854626 C167.729809,53.7562408 167.0837,54.5315712 167.0837,55.5653451 Z M167.0837,53.4977974 C167.471366,52.9809104 168.117474,52.5932452 168.763583,52.5932452 C170.443465,52.5932452 171.606461,53.8854626 171.606461,55.4361233 C171.606461,56.9867841 170.443465,58.2790015 168.763583,58.2790015 C168.117474,58.2790015 167.471366,57.8913363 167.0837,57.3744493 L167.0837,60.8634361 L165.791483,60.8634361 L165.791483,52.5932452 L167.0837,52.5932452 L167.0837,53.4977974 L167.0837,53.4977974 Z M174.320117,55.5653451 C174.320117,56.4698972 174.966226,57.2452276 176,57.2452276 C176.904552,57.2452276 177.550661,56.4698972 177.550661,55.5653451 C177.550661,54.660793 176.904552,53.8854626 176,53.8854626 C174.966226,53.7562408 174.320117,54.5315712 174.320117,55.5653451 Z M174.320117,53.4977974 C174.707783,52.9809104 175.353891,52.5932452 176,52.5932452 C177.679883,52.5932452 178.842878,53.8854626 178.842878,55.4361233 C178.842878,56.9867841 177.679883,58.2790015 176,58.2790015 C175.353891,58.2790015 174.707783,57.8913363 174.320117,57.3744493 L174.320117,60.8634361 L173.0279,60.8634361 L173.0279,52.5932452 L174.320117,52.5932452 L174.320117,53.4977974 L174.320117,53.4977974 Z M180.264317,58.2790015 L181.556535,58.2790015 L181.556535,50.0088106 L180.264317,50.0088106 L180.264317,58.2790015 Z M183.365639,58.2790015 L184.657856,58.2790015 L184.657856,52.8516887 L183.365639,52.8516887 L183.365639,58.2790015 L183.365639,58.2790015 Z M184.011747,49.8795888 C184.528634,49.8795888 184.9163,50.267254 184.9163,50.784141 C184.9163,51.3010279 184.528634,51.6886931 184.011747,51.6886931 C183.49486,51.6886931 183.107195,51.3010279 183.107195,50.784141 C182.977974,50.267254 183.365639,49.8795888 184.011747,49.8795888 L184.011747,49.8795888 Z M187.242291,55.5653451 C187.242291,56.4698972 187.888399,57.2452276 188.792952,57.2452276 C189.826725,57.2452276 190.472834,56.4698972 190.472834,55.5653451 C190.472834,54.660793 189.826725,53.8854626 188.792952,53.8854626 C187.888399,53.7562408 187.242291,54.5315712 187.242291,55.5653451 Z M190.472834,52.8516887 L191.765051,52.8516887 L191.765051,61.1218796 L190.472834,61.1218796 L190.472834,57.6328928 C190.085169,58.1497797 189.43906,58.5374449 188.792952,58.5374449 C187.113069,58.5374449 185.950073,57.2452276 185.950073,55.6945668 C185.950073,54.143906 187.113069,52.8516887 188.792952,52.8516887 C189.43906,52.8516887 190.085169,53.2393539 190.472834,53.7562408 C190.472834,53.4977974 190.472834,52.8516887 190.472834,52.8516887 Z M198.613803,52.722467 L198.613803,58.1497797 L197.321586,58.1497797 L197.321586,57.3744493 C196.933921,58.020558 196.287812,58.2790015 195.512482,58.2790015 C194.737151,58.2790015 194.220264,58.020558 193.832599,57.5036711 C193.574156,57.1160059 193.444934,56.5991189 193.444934,55.8237885 L193.444934,52.5932452 L194.737151,52.5932452 L194.737151,55.5653451 C194.737151,56.4698972 194.995595,57.2452276 195.900147,57.2452276 C196.804699,57.2452276 197.192364,56.4698972 197.192364,55.5653451 L197.192364,52.722467 L198.613803,52.722467 L198.613803,52.722467 Z M201.32746,54.9192364 L204.041116,54.9192364 C204.041116,54.143906 203.524229,53.6270191 202.748899,53.6270191 C201.973568,53.6270191 201.32746,54.0146843 201.32746,54.9192364 L201.32746,54.9192364 Z M201.585903,52.4640235 L200.939794,51.4302496 L203.911894,49.8795888 L204.558003,50.9133627 L201.585903,52.4640235 Z M201.32746,55.9530103 C201.32746,56.7283407 201.715125,57.3744493 202.748899,57.3744493 C203.524229,57.3744493 203.782673,56.9867841 203.911894,56.5991189 L205.204112,56.5991189 C205.07489,57.5036711 204.170338,58.4082232 202.748899,58.4082232 C200.939794,58.4082232 200.035242,57.1160059 200.035242,55.5653451 C200.035242,53.8854626 201.069016,52.722467 202.748899,52.722467 C204.170338,52.722467 205.333333,53.7562408 205.333333,55.1776799 C205.333333,55.3069016 205.333333,55.5653451 205.333333,55.9530103 L201.32746,55.9530103 L201.32746,55.9530103 Z M210.889868,56.7283407 C210.889868,57.8913363 209.856094,58.4082232 208.693098,58.4082232 C207.530103,58.4082232 206.496329,57.7621145 206.496329,56.4698972 L207.788546,56.4698972 C207.788546,57.2452276 208.176211,57.5036711 208.82232,57.5036711 C209.339207,57.5036711 209.726872,57.3744493 209.726872,56.8575624 C209.726872,56.3406755 209.209985,56.3406755 208.04699,55.8237885 C207.271659,55.5653451 206.754772,55.3069016 206.754772,54.2731278 C206.754772,53.2393539 207.659325,52.722467 208.82232,52.722467 C209.985316,52.722467 210.889868,53.4977974 210.889868,54.5315712 L209.597651,54.5315712 C209.597651,54.0146843 209.339207,53.6270191 208.693098,53.6270191 C208.305433,53.6270191 207.917768,53.8854626 207.917768,54.2731278 C207.917768,54.7900147 208.434655,54.7900147 209.468429,55.1776799 C210.114537,55.4361233 210.889868,55.6945668 210.889868,56.7283407 M2.58443465,68.2290749 L2.58443465,70.5550661 L4.13509545,70.5550661 C5.29809104,70.5550661 5.42731278,69.9089574 5.42731278,69.3920705 C5.42731278,69.0044053 5.16886931,68.2290749 4.13509545,68.2290749 L2.58443465,68.2290749 L2.58443465,68.2290749 Z M4.00587372,66.9368576 C5.16886931,66.9368576 5.29809104,66.1615272 5.29809104,65.773862 C5.29809104,65.3861968 5.16886931,64.6108664 4.00587372,64.6108664 L2.58443465,64.6108664 L2.58443465,66.8076358 C2.58443465,66.9368576 4.00587372,66.9368576 4.00587372,66.9368576 Z M1.16299559,63.5770925 L4.00587372,63.5770925 C6.20264317,63.5770925 6.59030837,64.9985316 6.59030837,65.773862 C6.59030837,66.8076358 5.81497797,67.4537445 5.16886931,67.5829662 C5.68575624,67.5829662 6.7195301,68.2290749 6.7195301,69.3920705 C6.7195301,70.2966226 6.3318649,71.7180617 4.00587372,71.7180617 L1.16299559,71.7180617 L1.16299559,63.5770925 Z M9.30396476,68.4875184 L12.0176211,68.4875184 C12.0176211,67.712188 11.5007342,67.195301 10.7254038,67.195301 C9.82085169,67.0660793 9.30396476,67.5829662 9.30396476,68.4875184 L9.30396476,68.4875184 Z M9.30396476,69.3920705 C9.30396476,70.1674009 9.69162996,70.8135095 10.7254038,70.8135095 C11.5007342,70.8135095 11.7591777,70.4258443 11.8883994,70.0381791 L13.1806167,70.0381791 C13.051395,70.9427313 12.1468429,71.8472834 10.7254038,71.8472834 C8.91629956,71.8472834 8.01174743,70.5550661 8.01174743,69.0044053 C8.01174743,67.3245228 9.04552129,66.1615272 10.7254038,66.1615272 C12.1468429,66.1615272 13.3098385,67.195301 13.3098385,68.6167401 C13.3098385,68.7459618 13.3098385,69.0044053 13.3098385,69.3920705 L9.30396476,69.3920705 L9.30396476,69.3920705 Z M18.2202643,67.4537445 C18.0910426,67.4537445 17.8325991,67.4537445 17.7033774,67.4537445 C16.6696035,67.4537445 16.0234949,68.0998532 16.0234949,69.3920705 L16.0234949,71.7180617 L14.7312775,71.7180617 L14.7312775,66.2907489 L16.0234949,66.2907489 L16.0234949,67.195301 C16.2819383,66.6784141 16.928047,66.2907489 17.7033774,66.2907489 C17.9618209,66.2907489 18.0910426,66.2907489 18.2202643,66.4199706 C18.2202643,66.2907489 18.2202643,67.4537445 18.2202643,67.4537445 Z M24.2936858,66.2907489 L24.2936858,71.7180617 L23.0014684,71.7180617 L23.0014684,70.9427313 C22.6138032,71.5888399 21.9676946,71.8472834 21.1923642,71.8472834 C20.4170338,71.8472834 19.9001468,71.5888399 19.5124816,71.071953 C19.2540382,70.6842878 19.1248164,70.1674009 19.1248164,69.3920705 L19.1248164,66.1615272 L20.4170338,66.1615272 L20.4170338,69.0044053 C20.4170338,69.9089574 20.6754772,70.6842878 21.5800294,70.6842878 C22.4845815,70.6842878 22.8722467,69.9089574 22.8722467,69.0044053 L22.8722467,66.1615272 C23.0014684,66.2907489 24.2936858,66.2907489 24.2936858,66.2907489 Z M29.3333333,64.7400881 C29.2041116,64.7400881 28.9456681,64.6108664 28.8164464,64.6108664 C28.4287812,64.6108664 27.9118943,64.6108664 27.9118943,65.5154185 L27.9118943,66.2907489 L29.3333333,66.2907489 L29.3333333,67.3245228 L27.9118943,67.3245228 L27.9118943,71.7180617 L26.6196769,71.7180617 L26.6196769,67.3245228 L25.4566814,67.3245228 L25.4566814,66.2907489 L26.6196769,66.2907489 L26.6196769,65.6446402 C26.6196769,63.5770925 27.9118943,63.4478708 28.5580029,63.4478708 C28.9456681,63.4478708 29.2041116,63.5770925 29.3333333,63.5770925 L29.3333333,64.7400881 L29.3333333,64.7400881 Z M34.6314244,70.1674009 C34.6314244,71.3303965 33.5976505,71.8472834 32.4346549,71.8472834 C31.2716593,71.8472834 30.2378855,71.2011747 30.2378855,69.9089574 L31.5301028,69.9089574 C31.5301028,70.6842878 31.917768,70.9427313 32.5638767,70.9427313 C33.0807636,70.9427313 33.4684288,70.8135095 33.4684288,70.2966226 C33.4684288,69.7797357 32.9515419,69.7797357 31.7885463,69.2628488 C31.0132159,69.0044053 30.4963289,68.7459618 30.4963289,67.712188 C30.4963289,66.6784141 31.4008811,66.1615272 32.5638767,66.1615272 C33.7268722,66.1615272 34.6314244,66.9368576 34.6314244,67.9706314 L33.339207,67.9706314 C33.339207,67.4537445 33.0807636,67.0660793 32.4346549,67.0660793 C32.0469897,67.0660793 31.6593245,67.3245228 31.6593245,67.712188 C31.6593245,68.2290749 32.1762115,68.2290749 33.2099853,68.6167401 C33.856094,69.0044053 34.6314244,69.2628488 34.6314244,70.1674009 M39.2834068,64.7400881 C39.154185,64.6108664 38.8957416,64.6108664 38.7665198,64.6108664 C38.3788546,64.6108664 37.8619677,64.6108664 37.8619677,65.5154185 L37.8619677,66.2907489 L39.2834068,66.2907489 L39.2834068,67.3245228 L37.8619677,67.3245228 L37.8619677,71.7180617 L36.5697504,71.7180617 L36.5697504,67.3245228 L35.4067548,67.3245228 L35.4067548,66.2907489 L36.5697504,66.2907489 L36.5697504,65.6446402 C36.5697504,63.5770925 37.8619677,63.4478708 38.5080764,63.4478708 C38.8957416,63.4478708 39.154185,63.5770925 39.2834068,63.5770925 L39.2834068,64.7400881 L39.2834068,64.7400881 Z M44.5814978,69.0044053 C44.5814978,68.0998532 43.9353891,67.3245228 42.9016153,67.3245228 C41.9970631,67.3245228 41.3509545,68.0998532 41.3509545,69.0044053 C41.3509545,69.9089574 41.9970631,70.6842878 42.9016153,70.6842878 C43.9353891,70.8135095 44.5814978,69.9089574 44.5814978,69.0044053 L44.5814978,69.0044053 Z M45.8737151,66.2907489 L45.8737151,71.7180617 L44.5814978,71.7180617 L44.5814978,71.071953 C44.1938326,71.5888399 43.5477239,71.9765051 42.9016153,71.9765051 C41.2217327,71.9765051 40.0587372,70.6842878 40.0587372,69.133627 C40.0587372,67.5829662 41.2217327,66.2907489 42.9016153,66.2907489 C43.5477239,66.2907489 44.1938326,66.6784141 44.5814978,67.195301 L44.5814978,66.4199706 L45.8737151,66.2907489 L45.8737151,66.2907489 Z M51.3010279,68.2290749 C51.1718062,67.5829662 50.9133627,67.195301 50.0088106,67.195301 C48.9750367,67.195301 48.5873715,67.9706314 48.5873715,68.8751836 C48.5873715,69.7797357 48.9750367,70.5550661 50.1380323,70.5550661 C50.9133627,70.5550661 51.1718062,70.1674009 51.3010279,69.650514 L52.5932452,69.650514 C52.4640235,70.8135095 51.5594714,71.7180617 50.0088106,71.7180617 C48.1997063,71.7180617 47.2951542,70.2966226 47.2951542,68.8751836 C47.2951542,67.4537445 48.1997063,66.0323054 50.0088106,66.0323054 C51.8179148,66.0323054 52.4640235,67.0660793 52.5932452,68.2290749 L51.3010279,68.2290749 L51.3010279,68.2290749 Z M54.143906,63.5770925 L55.4361233,63.5770925 L55.4361233,67.0660793 C55.8237885,66.4199706 56.4698972,66.1615272 57.2452276,66.1615272 C58.020558,66.1615272 58.5374449,66.4199706 58.9251101,66.9368576 C59.1835536,67.3245228 59.3127753,67.8414097 59.3127753,68.6167401 L59.3127753,71.8472834 L58.020558,71.8472834 L58.020558,69.0044053 C58.020558,68.0998532 57.7621145,67.3245228 56.8575624,67.3245228 C55.9530103,67.3245228 55.5653451,68.0998532 55.5653451,69.0044053 L55.5653451,71.8472834 L54.2731278,71.8472834 L54.2731278,63.5770925 L54.143906,63.5770925 Z M64.8693098,70.1674009 C64.8693098,71.3303965 63.835536,71.8472834 62.6725404,71.8472834 C61.5095448,71.8472834 60.4757709,71.2011747 60.4757709,69.9089574 L61.7679883,69.9089574 C61.7679883,70.6842878 62.1556535,70.9427313 62.8017621,70.9427313 C63.318649,70.9427313 63.7063142,70.8135095 63.7063142,70.2966226 C63.7063142,69.7797357 63.1894273,69.7797357 62.0264317,69.2628488 C61.2511013,69.0044053 60.7342144,68.7459618 60.7342144,67.712188 C60.7342144,66.6784141 61.6387665,66.1615272 62.8017621,66.1615272 C63.9647577,66.1615272 64.8693098,66.9368576 64.8693098,67.9706314 L63.5770925,67.9706314 C63.5770925,67.4537445 63.318649,67.0660793 62.6725404,67.0660793 C62.2848752,67.0660793 61.89721,67.3245228 61.89721,67.712188 C61.89721,68.2290749 62.4140969,68.2290749 63.4478708,68.6167401 C64.2232012,69.0044053 64.8693098,69.2628488 64.8693098,70.1674009 M70.0381791,68.2290749 C69.9089574,67.5829662 69.650514,67.195301 68.7459618,67.195301 C67.712188,67.195301 67.3245228,67.9706314 67.3245228,68.8751836 C67.3245228,69.7797357 67.712188,70.5550661 68.8751836,70.5550661 C69.650514,70.5550661 69.9089574,70.1674009 70.0381791,69.650514 L71.3303965,69.650514 C71.2011747,70.8135095 70.2966226,71.7180617 68.7459618,71.7180617 C66.9368576,71.7180617 66.0323054,70.2966226 66.0323054,68.8751836 C66.0323054,67.4537445 66.9368576,66.0323054 68.7459618,66.0323054 C70.5550661,66.0323054 71.2011747,67.0660793 71.3303965,68.2290749 C71.3303965,68.2290749 70.0381791,68.2290749 70.0381791,68.2290749 Z M72.8810573,63.5770925 L74.1732746,63.5770925 L74.1732746,67.0660793 C74.5609398,66.4199706 75.2070485,66.1615272 75.9823789,66.1615272 C76.7577093,66.1615272 77.2745962,66.4199706 77.6622614,66.9368576 C77.9207048,67.3245228 78.0499266,67.8414097 78.0499266,68.6167401 L78.0499266,71.8472834 L76.7577093,71.8472834 L76.7577093,69.0044053 C76.7577093,68.0998532 76.4992658,67.3245228 75.5947137,67.3245228 C74.6901615,67.3245228 74.3024963,68.0998532 74.3024963,69.0044053 L74.3024963,71.8472834 L73.010279,71.8472834 L73.010279,63.5770925 L72.8810573,63.5770925 Z M84.6402349,66.2907489 L84.6402349,71.7180617 L83.3480176,71.7180617 L83.3480176,70.9427313 C82.9603524,71.5888399 82.3142438,71.8472834 81.5389134,71.8472834 C80.763583,71.8472834 80.246696,71.5888399 79.8590308,71.071953 C79.6005874,70.6842878 79.4713656,70.1674009 79.4713656,69.3920705 L79.4713656,66.1615272 L80.763583,66.1615272 L80.763583,69.0044053 C80.763583,69.9089574 81.0220264,70.6842878 81.9265786,70.6842878 C82.8311307,70.6842878 83.2187959,69.9089574 83.2187959,69.0044053 L83.2187959,66.1615272 L84.6402349,66.1615272 L84.6402349,66.2907489 Z M86.4493392,71.7180617 L87.7415565,71.7180617 L87.7415565,63.4478708 L86.4493392,63.4478708 L86.4493392,71.7180617 Z M90.4552129,68.4875184 L93.1688693,68.4875184 C93.1688693,67.712188 92.6519824,67.195301 91.876652,67.195301 C90.9720999,67.0660793 90.4552129,67.5829662 90.4552129,68.4875184 L90.4552129,68.4875184 Z M90.4552129,69.3920705 C90.4552129,70.1674009 90.8428781,70.8135095 91.876652,70.8135095 C92.6519824,70.8135095 92.9104258,70.4258443 93.0396476,70.0381791 L94.3318649,70.0381791 C94.2026432,70.9427313 93.298091,71.8472834 91.876652,71.8472834 C90.0675477,71.8472834 89.1629956,70.5550661 89.1629956,69.0044053 C89.1629956,67.3245228 90.1967695,66.1615272 91.876652,66.1615272 C93.298091,66.1615272 94.4610866,67.195301 94.4610866,68.6167401 C94.4610866,68.7459618 94.4610866,69.0044053 94.4610866,69.3920705 L90.4552129,69.3920705 L90.4552129,69.3920705 Z M101.697504,64.7400881 C101.568282,64.7400881 101.309838,64.6108664 101.180617,64.6108664 C100.792952,64.6108664 100.276065,64.6108664 100.276065,65.5154185 L100.276065,66.2907489 L101.697504,66.2907489 L101.697504,67.3245228 L100.276065,67.3245228 L100.276065,71.7180617 L98.9838473,71.7180617 L98.9838473,67.3245228 L97.8208517,67.3245228 L97.8208517,66.2907489 L98.9838473,66.2907489 L98.9838473,65.6446402 C98.9838473,63.5770925 100.276065,63.4478708 100.922173,63.4478708 C101.309838,63.4478708 101.568282,63.5770925 101.697504,63.5770925 L101.697504,64.7400881 L101.697504,64.7400881 Z M103.894273,63.5770925 C104.41116,63.5770925 104.798825,63.9647577 104.798825,64.4816446 C104.798825,64.9985316 104.41116,65.3861968 103.894273,65.3861968 C103.377386,65.3861968 102.989721,64.9985316 102.989721,64.4816446 C102.989721,63.9647577 103.377386,63.5770925 103.894273,63.5770925 Z M107.770925,71.7180617 L106.478708,71.7180617 L106.478708,70.9427313 C106.091043,71.5888399 105.444934,71.8472834 104.669604,71.8472834 C103.894273,71.8472834 103.377386,71.5888399 102.989721,71.071953 C102.731278,70.6842878 102.602056,70.1674009 102.602056,69.3920705 L102.602056,66.1615272 L103.894273,66.1615272 L103.894273,69.0044053 C103.894273,69.9089574 104.152717,70.6842878 105.057269,70.6842878 C105.961821,70.6842878 106.349486,69.9089574 106.349486,69.0044053 L106.349486,66.1615272 L107.641703,66.1615272 L107.641703,71.7180617 L107.770925,71.7180617 Z M113.069016,67.4537445 C112.939794,67.4537445 112.681351,67.4537445 112.552129,67.4537445 C111.518355,67.4537445 110.872247,68.0998532 110.872247,69.3920705 L110.872247,71.7180617 L109.580029,71.7180617 L109.580029,66.2907489 L110.872247,66.2907489 L110.872247,67.195301 C111.13069,66.6784141 111.776799,66.2907489 112.552129,66.2907489 C112.810573,66.2907489 112.939794,66.2907489 113.069016,66.4199706 C113.069016,66.2907489 113.069016,67.4537445 113.069016,67.4537445 Z M121.597651,67.5829662 L125.474302,67.5829662 L125.474302,68.7459618 L124.56975,68.7459618 C124.182085,70.5550661 122.889868,71.8472834 120.563877,71.8472834 C117.85022,71.8472834 116.299559,69.7797357 116.299559,67.5829662 C116.299559,65.3861968 117.979442,63.318649 120.563877,63.318649 C122.502203,63.318649 123.923642,64.4816446 124.052863,66.0323054 L122.760646,66.0323054 C122.631424,65.256975 121.726872,64.6108664 120.563877,64.6108664 C118.754772,64.6108664 117.720999,66.1615272 117.720999,67.712188 C117.720999,69.2628488 118.754772,70.8135095 120.693098,70.8135095 C122.114537,70.8135095 122.889868,69.9089574 123.148311,68.8751836 L121.597651,68.8751836 C121.597651,68.8751836 121.597651,67.5829662 121.597651,67.5829662 Z M127.671072,68.4875184 L130.384728,68.4875184 C130.384728,67.712188 129.867841,67.195301 129.092511,67.195301 C128.317181,67.0660793 127.671072,67.5829662 127.671072,68.4875184 Z M127.671072,69.3920705 C127.671072,70.1674009 128.058737,70.8135095 129.092511,70.8135095 C129.867841,70.8135095 130.126285,70.4258443 130.255507,70.0381791 L131.547724,70.0381791 C131.418502,70.9427313 130.51395,71.8472834 129.092511,71.8472834 C127.283407,71.8472834 126.378855,70.5550661 126.378855,69.0044053 C126.378855,67.3245228 127.412628,66.1615272 129.092511,66.1615272 C130.51395,66.1615272 131.676946,67.195301 131.676946,68.6167401 C131.676946,68.7459618 131.676946,69.0044053 131.676946,69.3920705 L127.671072,69.3920705 L127.671072,69.3920705 Z M137.23348,70.1674009 C137.23348,71.3303965 136.199706,71.8472834 135.036711,71.8472834 C133.873715,71.8472834 132.839941,71.2011747 132.839941,69.9089574 L134.132159,69.9089574 C134.132159,70.6842878 134.519824,70.9427313 135.165932,70.9427313 C135.682819,70.9427313 136.070485,70.8135095 136.070485,70.2966226 C136.070485,69.7797357 135.553598,69.7797357 134.390602,69.2628488 C133.615272,69.0044053 133.098385,68.7459618 133.098385,67.712188 C133.098385,66.6784141 134.002937,66.1615272 135.165932,66.1615272 C136.328928,66.1615272 137.23348,66.9368576 137.23348,67.9706314 L135.941263,67.9706314 C135.941263,67.4537445 135.682819,67.0660793 135.036711,67.0660793 C134.649046,67.0660793 134.26138,67.3245228 134.26138,67.712188 C134.26138,68.2290749 134.778267,68.2290749 135.812041,68.6167401 C136.45815,69.0044053 137.23348,69.2628488 137.23348,70.1674009 M141.756241,71.7180617 C141.497797,71.7180617 141.110132,71.8472834 140.851689,71.8472834 C140.20558,71.8472834 139.042584,71.7180617 139.042584,69.9089574 L139.042584,67.3245228 L138.138032,67.3245228 L138.138032,66.2907489 L139.042584,66.2907489 L139.042584,64.6108664 L140.334802,64.6108664 L140.334802,66.2907489 L141.627019,66.2907489 L141.627019,67.3245228 L140.334802,67.3245228 L140.334802,69.5212922 C140.334802,70.4258443 140.593245,70.5550661 141.110132,70.5550661 C141.368576,70.5550661 141.627019,70.5550661 141.756241,70.5550661 C141.756241,70.6842878 141.756241,71.7180617 141.756241,71.7180617 Z M147.054332,69.0044053 C147.054332,68.0998532 146.408223,67.3245228 145.374449,67.3245228 C144.469897,67.3245228 143.823789,68.0998532 143.823789,69.0044053 C143.823789,69.9089574 144.469897,70.6842878 145.374449,70.6842878 C146.408223,70.8135095 147.054332,69.9089574 147.054332,69.0044053 Z M148.346549,66.2907489 L148.346549,71.7180617 L147.054332,71.7180617 L147.054332,71.071953 C146.666667,71.5888399 146.020558,71.9765051 145.374449,71.9765051 C143.694567,71.9765051 142.531571,70.6842878 142.531571,69.133627 C142.531571,67.5829662 143.694567,66.2907489 145.374449,66.2907489 C146.020558,66.2907489 146.666667,66.6784141 147.054332,67.195301 L147.054332,66.4199706 C147.054332,66.2907489 148.346549,66.2907489 148.346549,66.2907489 Z M150.155653,71.7180617 L151.447871,71.7180617 L151.447871,63.4478708 L150.155653,63.4478708 L150.155653,71.7180617 Z M156.358297,71.7180617 C156.099853,71.7180617 155.712188,71.8472834 155.453744,71.8472834 C154.807636,71.8472834 153.64464,71.7180617 153.64464,69.9089574 L153.64464,67.3245228 L152.740088,67.3245228 L152.740088,66.2907489 L153.64464,66.2907489 L153.64464,64.6108664 L154.936858,64.6108664 L154.936858,66.2907489 L156.229075,66.2907489 L156.229075,67.3245228 L154.936858,67.3245228 L154.936858,69.5212922 C154.936858,70.4258443 155.195301,70.5550661 155.712188,70.5550661 C155.970631,70.5550661 156.229075,70.5550661 156.358297,70.5550661 L156.358297,71.7180617 L156.358297,71.7180617 Z M162.431718,66.2907489 L162.431718,71.7180617 L161.139501,71.7180617 L161.139501,70.9427313 C160.751836,71.5888399 160.105727,71.8472834 159.330396,71.8472834 C158.555066,71.8472834 158.038179,71.5888399 157.650514,71.071953 C157.39207,70.6842878 157.262849,70.1674009 157.262849,69.3920705 L157.262849,66.1615272 L158.555066,66.1615272 L158.555066,69.0044053 C158.555066,69.9089574 158.81351,70.6842878 159.718062,70.6842878 C160.622614,70.6842878 161.010279,69.9089574 161.010279,69.0044053 L161.010279,66.1615272 C161.139501,66.2907489 162.431718,66.2907489 162.431718,66.2907489 Z M164.240822,66.2907489 L165.53304,66.2907489 L165.53304,67.0660793 C165.920705,66.4199706 166.566814,66.1615272 167.342144,66.1615272 C168.117474,66.1615272 168.634361,66.4199706 169.022026,66.9368576 C169.28047,67.3245228 169.409692,67.8414097 169.409692,68.6167401 L169.409692,71.8472834 L168.117474,71.8472834 L168.117474,69.0044053 C168.117474,68.0998532 167.859031,67.3245228 166.954479,67.3245228 C166.049927,67.3245228 165.662261,68.0998532 165.662261,69.0044053 L165.662261,71.8472834 L164.370044,71.8472834 C164.240822,71.7180617 164.240822,66.2907489 164.240822,66.2907489 Z M171.994126,69.0044053 C171.994126,69.9089574 172.640235,70.6842878 173.544787,70.6842878 C174.578561,70.6842878 175.22467,69.9089574 175.22467,69.0044053 C175.22467,68.0998532 174.578561,67.3245228 173.544787,67.3245228 C172.640235,67.3245228 171.994126,68.0998532 171.994126,69.0044053 Z M176.516887,71.9765051 C176.516887,72.8810573 176.258443,73.5271659 175.741557,73.9148311 C175.22467,74.3024963 174.449339,74.5609398 173.544787,74.5609398 C172.640235,74.5609398 171.994126,74.3024963 171.477239,73.9148311 C171.089574,73.5271659 170.831131,73.010279 170.701909,72.3641703 L171.994126,72.3641703 C172.123348,73.010279 172.511013,73.5271659 173.415565,73.5271659 C174.449339,73.5271659 175.095448,73.1395007 175.095448,72.1057269 L175.095448,71.071953 C174.707783,71.5888399 174.061674,71.9765051 173.415565,71.9765051 C171.735683,71.9765051 170.572687,70.6842878 170.572687,69.133627 C170.572687,67.5829662 171.735683,66.2907489 173.415565,66.2907489 C174.061674,66.2907489 174.707783,66.6784141 175.095448,67.195301 L175.095448,66.4199706 L176.387665,66.4199706 C176.516887,66.2907489 176.516887,71.9765051 176.516887,71.9765051 Z M4.13509545,85.2863436 L3.23054332,85.2863436 L0.387665198,77.0161527 L1.80910426,77.0161527 L3.74743025,82.9603524 L5.68575624,77.0161527 L7.1071953,77.0161527 L4.13509545,85.2863436 Z M11.6299559,82.5726872 C11.6299559,81.6681351 10.9838473,80.8928047 9.95007342,80.8928047 C9.04552129,80.8928047 8.39941263,81.6681351 8.39941263,82.5726872 C8.39941263,83.4772394 9.04552129,84.2525698 9.95007342,84.2525698 C10.9838473,84.2525698 11.6299559,83.4772394 11.6299559,82.5726872 M7.1071953,82.5726872 C7.1071953,81.0220264 8.2701909,79.7298091 9.95007342,79.7298091 C11.7591777,79.7298091 12.7929515,81.0220264 12.7929515,82.5726872 C12.7929515,84.123348 11.6299559,85.4155653 9.95007342,85.4155653 C8.2701909,85.4155653 7.1071953,83.9941263 7.1071953,82.5726872 M18.0910426,81.7973568 C17.9618209,81.1512482 17.7033774,80.763583 16.7988253,80.763583 C15.7650514,80.763583 15.3773862,81.5389134 15.3773862,82.4434655 C15.3773862,83.3480176 15.7650514,84.123348 16.928047,84.123348 C17.7033774,84.123348 17.9618209,83.7356828 18.0910426,83.2187959 L19.3832599,83.2187959 C19.2540382,84.3817915 18.349486,85.2863436 16.7988253,85.2863436 C14.989721,85.2863436 14.0851689,83.8649046 14.0851689,82.4434655 C14.0851689,81.0220264 14.989721,79.6005874 16.7988253,79.6005874 C18.6079295,79.6005874 19.2540382,80.6343612 19.3832599,81.7973568 L18.0910426,81.7973568 L18.0910426,81.7973568 Z M24.9397944,82.5726872 C24.9397944,81.6681351 24.2936858,80.8928047 23.2599119,80.8928047 C22.3553598,80.8928047 21.7092511,81.6681351 21.7092511,82.5726872 C21.7092511,83.4772394 22.3553598,84.2525698 23.2599119,84.2525698 C24.2936858,84.2525698 24.9397944,83.4772394 24.9397944,82.5726872 Z M26.2320117,79.7298091 L26.2320117,85.2863436 L24.9397944,85.2863436 L24.9397944,84.5110132 C24.5521292,85.0279001 23.9060206,85.4155653 23.2599119,85.4155653 C21.5800294,85.4155653 20.4170338,84.123348 20.4170338,82.5726872 C20.4170338,81.0220264 21.5800294,79.7298091 23.2599119,79.7298091 C23.9060206,79.7298091 24.5521292,80.1174743 24.9397944,80.6343612 L24.9397944,79.8590308 L26.2320117,79.7298091 L26.2320117,79.7298091 Z M31.0132159,85.2863436 C30.7547724,85.2863436 30.3671072,85.4155653 30.1086637,85.4155653 C29.4625551,85.4155653 28.2995595,85.2863436 28.2995595,83.4772394 L28.2995595,80.8928047 L27.3950073,80.8928047 L27.3950073,79.8590308 L28.2995595,79.8590308 L28.2995595,78.1791483 L29.5917768,78.1791483 L29.5917768,79.8590308 L30.8839941,79.8590308 L30.8839941,80.8928047 L29.5917768,80.8928047 L29.5917768,83.0895742 C29.5917768,83.9941263 29.8502203,84.123348 30.3671072,84.123348 C30.6255507,84.123348 30.8839941,84.123348 31.0132159,84.123348 C31.0132159,84.123348 31.0132159,85.2863436 31.0132159,85.2863436 Z M32.1762115,85.2863436 L33.4684288,85.2863436 L33.4684288,79.8590308 L32.1762115,79.8590308 L32.1762115,85.2863436 Z M32.8223201,76.886931 C33.339207,76.886931 33.856094,77.2745962 33.856094,77.7914831 C33.856094,78.30837 33.4684288,78.825257 32.9515419,78.825257 C32.9515419,78.825257 32.8223201,78.825257 32.8223201,78.825257 C32.3054332,78.825257 31.917768,78.30837 31.917768,77.7914831 C32.0469897,77.2745962 32.4346549,76.886931 32.8223201,76.886931 L32.8223201,76.886931 Z M39.4126285,82.5726872 C39.4126285,81.6681351 38.7665198,80.8928047 37.732746,80.8928047 C36.8281938,80.8928047 36.1820852,81.6681351 36.1820852,82.5726872 C36.1820852,83.4772394 36.8281938,84.2525698 37.732746,84.2525698 C38.7665198,84.2525698 39.4126285,83.4772394 39.4126285,82.5726872 M34.8898678,82.5726872 C34.8898678,81.0220264 36.0528634,79.7298091 37.732746,79.7298091 C39.5418502,79.7298091 40.5756241,81.0220264 40.5756241,82.5726872 C40.5756241,84.123348 39.4126285,85.4155653 37.732746,85.4155653 C36.0528634,85.4155653 34.8898678,83.9941263 34.8898678,82.5726872 M42.1262849,79.7298091 L43.4185022,79.7298091 L43.4185022,80.5051395 C43.8061674,79.8590308 44.4522761,79.6005874 45.2276065,79.6005874 C46.0029369,79.6005874 46.5198238,79.8590308 46.907489,80.3759178 C47.1659325,80.763583 47.2951542,81.2804699 47.2951542,82.0558003 L47.2951542,85.2863436 L46.0029369,85.2863436 L46.0029369,82.4434655 C46.0029369,81.5389134 45.7444934,80.763583 44.8399413,80.763583 C43.9353891,80.763583 43.5477239,81.5389134 43.5477239,82.4434655 L43.5477239,85.2863436 L42.2555066,85.2863436 C42.1262849,85.2863436 42.1262849,79.7298091 42.1262849,79.7298091 Z M52.9809104,82.5726872 C52.9809104,81.6681351 52.3348018,80.8928047 51.3010279,80.8928047 C50.3964758,80.8928047 49.7503671,81.6681351 49.7503671,82.5726872 C49.7503671,83.4772394 50.3964758,84.2525698 51.3010279,84.2525698 C52.3348018,84.2525698 52.9809104,83.4772394 52.9809104,82.5726872 Z M54.2731278,79.7298091 L54.2731278,85.2863436 L52.9809104,85.2863436 L52.9809104,84.5110132 C52.5932452,85.0279001 51.9471366,85.4155653 51.3010279,85.4155653 C49.6211454,85.4155653 48.4581498,84.123348 48.4581498,82.5726872 C48.4581498,81.0220264 49.6211454,79.7298091 51.3010279,79.7298091 C51.9471366,79.7298091 52.5932452,80.1174743 52.9809104,80.6343612 L52.9809104,79.8590308 L54.2731278,79.7298091 L54.2731278,79.7298091 Z M56.082232,85.2863436 L57.3744493,85.2863436 L57.3744493,77.0161527 L56.082232,77.0161527 L56.082232,85.2863436 Z M62.8017621,82.5726872 C62.8017621,83.6064611 63.4478708,84.2525698 64.3524229,84.2525698 C65.1277533,84.2525698 65.6446402,83.7356828 65.6446402,83.0895742 C65.6446402,82.3142438 64.8693098,81.9265786 64.3524229,81.7973568 C62.8017621,81.2804699 61.6387665,80.763583 61.6387665,79.2129222 C61.6387665,77.7914831 62.8017621,77.0161527 64.2232012,77.0161527 C65.6446402,77.0161527 66.8076358,78.0499266 66.8076358,79.6005874 L65.5154185,79.6005874 C65.5154185,78.825257 64.9985316,78.1791483 64.2232012,78.1791483 C63.5770925,78.1791483 62.9309838,78.5668135 62.9309838,79.2129222 C62.9309838,79.8590308 63.5770925,80.246696 64.0939794,80.3759178 C65.3861968,80.8928047 66.9368576,81.4096916 66.9368576,82.9603524 C66.9368576,84.6402349 65.6446402,85.5447871 64.0939794,85.5447871 C62.5433186,85.5447871 61.2511013,84.5110132 61.2511013,82.701909 C61.5095448,82.5726872 62.8017621,82.5726872 62.8017621,82.5726872 Z M72.3641703,81.7973568 C72.2349486,81.1512482 71.9765051,80.763583 71.071953,80.763583 C70.0381791,80.763583 69.650514,81.5389134 69.650514,82.4434655 C69.650514,83.3480176 70.0381791,84.123348 71.2011747,84.123348 C71.9765051,84.123348 72.2349486,83.7356828 72.3641703,83.2187959 L73.6563877,83.2187959 C73.5271659,84.3817915 72.6226138,85.2863436 71.071953,85.2863436 C69.2628488,85.2863436 68.3582966,83.8649046 68.3582966,82.4434655 C68.3582966,81.0220264 69.2628488,79.6005874 71.071953,79.6005874 C72.8810573,79.6005874 73.5271659,80.6343612 73.6563877,81.7973568 L72.3641703,81.7973568 L72.3641703,81.7973568 Z M75.0778267,77.0161527 L76.3700441,77.0161527 L76.3700441,80.5051395 C76.7577093,79.8590308 77.4038179,79.6005874 78.1791483,79.6005874 C78.9544787,79.6005874 79.4713656,79.8590308 79.8590308,80.3759178 C80.1174743,80.763583 80.246696,81.2804699 80.246696,82.0558003 L80.246696,85.2863436 L78.9544787,85.2863436 L78.9544787,82.4434655 C78.9544787,81.5389134 78.6960352,80.763583 77.7914831,80.763583 C76.886931,80.763583 76.4992658,81.5389134 76.4992658,82.4434655 L76.4992658,85.2863436 L75.2070485,85.2863436 L75.0778267,77.0161527 L75.0778267,77.0161527 Z M85.9324523,82.5726872 C85.9324523,81.6681351 85.2863436,80.8928047 84.2525698,80.8928047 C83.3480176,80.8928047 82.701909,81.6681351 82.701909,82.5726872 C82.701909,83.4772394 83.3480176,84.2525698 84.2525698,84.2525698 C85.4155653,84.2525698 85.9324523,83.4772394 85.9324523,82.5726872 M81.5389134,82.5726872 C81.5389134,81.0220264 82.701909,79.7298091 84.3817915,79.7298091 C86.1908957,79.7298091 87.2246696,81.0220264 87.2246696,82.5726872 C87.2246696,84.123348 86.061674,85.4155653 84.3817915,85.4155653 C82.5726872,85.4155653 81.5389134,83.9941263 81.5389134,82.5726872 M92.7812041,82.5726872 C92.7812041,81.6681351 92.1350954,80.8928047 91.1013216,80.8928047 C90.1967695,80.8928047 89.5506608,81.6681351 89.5506608,82.5726872 C89.5506608,83.4772394 90.1967695,84.2525698 91.1013216,84.2525698 C92.2643172,84.2525698 92.7812041,83.4772394 92.7812041,82.5726872 M88.3876652,82.5726872 C88.3876652,81.0220264 89.5506608,79.7298091 91.2305433,79.7298091 C93.0396476,79.7298091 94.0734214,81.0220264 94.0734214,82.5726872 C94.0734214,84.123348 92.9104258,85.4155653 91.2305433,85.4155653 C89.4214391,85.4155653 88.3876652,83.9941263 88.3876652,82.5726872 M95.6240822,85.2863436 L96.9162996,85.2863436 L96.9162996,77.0161527 L95.6240822,77.0161527 L95.6240822,85.2863436 Z M105.315712,82.5726872 C105.315712,81.6681351 104.669604,80.8928047 103.63583,80.8928047 C102.731278,80.8928047 102.085169,81.6681351 102.085169,82.5726872 C102.085169,83.4772394 102.731278,84.2525698 103.63583,84.2525698 C104.669604,84.2525698 105.315712,83.4772394 105.315712,82.5726872 M100.922173,82.5726872 C100.922173,81.0220264 102.085169,79.7298091 103.765051,79.7298091 C105.574156,79.7298091 106.60793,81.0220264 106.60793,82.5726872 C106.60793,84.123348 105.444934,85.4155653 103.765051,85.4155653 C101.955947,85.4155653 100.922173,83.9941263 100.922173,82.5726872 M111.259912,78.1791483 C111.13069,78.1791483 110.872247,78.0499266 110.743025,78.0499266 C110.35536,78.0499266 109.838473,78.0499266 109.838473,78.9544787 L109.838473,79.7298091 L111.259912,79.7298091 L111.259912,80.763583 L109.838473,80.763583 L109.838473,85.2863436 L108.546256,85.2863436 L108.546256,80.8928047 L107.38326,80.8928047 L107.38326,79.8590308 L108.546256,79.8590308 L108.546256,79.2129222 C108.546256,77.1453744 109.838473,77.0161527 110.484581,77.0161527 C110.872247,77.0161527 111.13069,77.1453744 111.259912,77.1453744 C111.259912,77.1453744 111.259912,78.1791483 111.259912,78.1791483 Z M117.462555,79.2129222 L116.299559,82.9603524 L118.625551,82.9603524 L117.462555,79.2129222 Z M119.400881,85.2863436 L119.013216,84.2525698 L115.911894,84.2525698 L115.524229,85.2863436 L114.10279,85.2863436 L116.945668,77.0161527 L117.85022,77.0161527 L120.693098,85.2863436 L119.400881,85.2863436 Z M123.148311,82.5726872 C123.148311,83.4772394 123.79442,84.2525698 124.828194,84.2525698 C125.732746,84.2525698 126.378855,83.4772394 126.378855,82.5726872 C126.378855,81.6681351 125.732746,80.8928047 124.828194,80.8928047 C123.79442,80.763583 123.148311,81.5389134 123.148311,82.5726872 L123.148311,82.5726872 Z M123.148311,80.5051395 C123.535977,79.9882526 124.182085,79.6005874 124.828194,79.6005874 C126.508076,79.6005874 127.671072,80.8928047 127.671072,82.4434655 C127.671072,83.9941263 126.508076,85.2863436 124.828194,85.2863436 C124.182085,85.2863436 123.535977,84.8986784 123.148311,84.3817915 L123.148311,87.8707783 L121.856094,87.8707783 L121.856094,79.6005874 L123.148311,79.6005874 L123.148311,80.5051395 L123.148311,80.5051395 Z M130.384728,82.5726872 C130.384728,83.4772394 131.030837,84.2525698 132.064611,84.2525698 C132.969163,84.2525698 133.615272,83.4772394 133.615272,82.5726872 C133.615272,81.6681351 132.969163,80.8928047 132.064611,80.8928047 C131.030837,80.763583 130.384728,81.5389134 130.384728,82.5726872 Z M130.384728,80.5051395 C130.772394,79.9882526 131.418502,79.6005874 132.064611,79.6005874 C133.744493,79.6005874 134.907489,80.8928047 134.907489,82.4434655 C134.907489,83.9941263 133.744493,85.2863436 132.064611,85.2863436 C131.418502,85.2863436 130.772394,84.8986784 130.384728,84.3817915 L130.384728,87.8707783 L129.092511,87.8707783 L129.092511,79.6005874 L130.384728,79.6005874 L130.384728,80.5051395 Z M136.328928,85.2863436 L137.621145,85.2863436 L137.621145,77.0161527 L136.328928,77.0161527 L136.328928,85.2863436 Z M139.43025,85.2863436 L140.722467,85.2863436 L140.722467,79.8590308 L139.43025,79.8590308 L139.43025,85.2863436 Z M140.076358,76.886931 C140.593245,76.886931 140.98091,77.2745962 141.110132,77.7914831 C141.110132,78.30837 140.722467,78.6960352 140.20558,78.825257 C140.20558,78.825257 140.20558,78.825257 140.076358,78.825257 C139.559471,78.825257 139.171806,78.4375918 139.171806,77.9207048 C139.042584,77.2745962 139.559471,76.886931 140.076358,76.886931 C140.076358,76.886931 140.076358,76.886931 140.076358,76.886931 L140.076358,76.886931 Z M143.436123,81.9265786 L146.14978,81.9265786 C146.14978,81.1512482 145.632893,80.6343612 144.857562,80.6343612 C143.95301,80.6343612 143.436123,81.0220264 143.436123,81.9265786 L143.436123,81.9265786 Z M143.436123,82.9603524 C143.436123,83.7356828 143.823789,84.3817915 144.857562,84.3817915 C145.632893,84.3817915 145.891336,83.9941263 146.020558,83.6064611 L147.312775,83.6064611 C147.183554,84.5110132 146.279001,85.4155653 144.857562,85.4155653 C143.048458,85.4155653 142.143906,84.123348 142.143906,82.5726872 C142.143906,80.8928047 143.17768,79.7298091 144.857562,79.7298091 C146.279001,79.7298091 147.441997,80.763583 147.441997,82.185022 C147.441997,82.3142438 147.441997,82.5726872 147.441997,82.9603524 C147.312775,82.9603524 143.436123,82.9603524 143.436123,82.9603524 Z M152.998532,82.5726872 C152.998532,81.6681351 152.352423,80.8928047 151.318649,80.8928047 C150.414097,80.8928047 149.767988,81.6681351 149.767988,82.5726872 C149.767988,83.4772394 150.414097,84.2525698 151.318649,84.2525698 C152.352423,84.2525698 152.998532,83.4772394 152.998532,82.5726872 L152.998532,82.5726872 Z M152.998532,84.5110132 C152.610866,85.0279001 151.964758,85.4155653 151.318649,85.4155653 C149.638767,85.4155653 148.475771,84.123348 148.475771,82.5726872 C148.475771,81.0220264 149.638767,79.7298091 151.318649,79.7298091 C151.964758,79.7298091 152.610866,80.1174743 152.998532,80.6343612 L152.998532,77.1453744 L154.290749,77.1453744 L154.290749,85.2863436 L152.998532,85.2863436 L152.998532,84.5110132 L152.998532,84.5110132 Z M161.139501,79.2129222 L159.976505,82.9603524 L162.302496,82.9603524 L161.139501,79.2129222 Z M163.077827,85.2863436 L162.690162,84.2525698 L159.58884,84.2525698 L159.201175,85.2863436 L157.779736,85.2863436 L160.622614,77.0161527 L161.527166,77.0161527 L164.370044,85.2863436 C164.499266,85.2863436 163.077827,85.2863436 163.077827,85.2863436 Z M169.022026,81.0220264 C168.892805,81.0220264 168.634361,81.0220264 168.50514,81.0220264 C167.471366,81.0220264 166.825257,81.6681351 166.825257,82.9603524 L166.825257,85.2863436 L165.53304,85.2863436 L165.53304,79.8590308 L166.825257,79.8590308 L166.825257,80.763583 C167.0837,80.246696 167.729809,79.8590308 168.50514,79.8590308 C168.763583,79.8590308 168.892805,79.8590308 169.022026,79.9882526 C169.022026,79.7298091 169.022026,81.0220264 169.022026,81.0220264 Z M173.544787,85.2863436 C173.286344,85.2863436 172.898678,85.4155653 172.640235,85.4155653 C171.994126,85.4155653 170.831131,85.2863436 170.831131,83.4772394 L170.831131,80.8928047 L169.926579,80.8928047 L169.926579,79.8590308 L170.831131,79.8590308 L170.831131,78.1791483 L172.123348,78.1791483 L172.123348,79.8590308 L173.415565,79.8590308 L173.415565,80.8928047 L172.123348,80.8928047 L172.123348,83.0895742 C172.123348,83.9941263 172.381791,84.123348 172.898678,84.123348 C173.157122,84.123348 173.415565,84.123348 173.544787,84.123348 L173.544787,85.2863436 L173.544787,85.2863436 Z M178.842878,83.7356828 C178.842878,84.8986784 177.809104,85.4155653 176.646109,85.4155653 C175.483113,85.4155653 174.449339,84.7694567 174.449339,83.4772394 L175.741557,83.4772394 C175.741557,84.2525698 176.129222,84.5110132 176.77533,84.5110132 C177.292217,84.5110132 177.679883,84.3817915 177.679883,83.8649046 C177.679883,83.3480176 177.162996,83.3480176 176,82.8311307 C175.22467,82.5726872 174.707783,82.3142438 174.707783,81.2804699 C174.707783,80.246696 175.612335,79.7298091 176.77533,79.7298091 C177.938326,79.7298091 178.842878,80.5051395 178.842878,81.5389134 L177.550661,81.5389134 C177.550661,81.0220264 177.292217,80.6343612 176.646109,80.6343612 C176.258443,80.6343612 175.870778,80.8928047 175.870778,81.2804699 C175.870778,81.7973568 176.387665,81.7973568 177.421439,82.185022 C178.067548,82.4434655 178.842878,82.701909 178.842878,83.7356828 M14.6020558,17.9618209 C14.6020558,15.1189427 12.6637298,13.4390602 9.82085169,13.4390602 C7.1071953,13.4390602 4.91042584,14.989721 4.91042584,17.9618209 L14.6020558,17.9618209 L14.6020558,17.9618209 Z M9.82085169,9.56240822 C14.989721,9.56240822 19.1248164,13.4390602 19.1248164,18.4787078 C19.1248164,19.1248164 19.1248164,20.0293686 18.866373,21.4508076 L4.78120411,21.4508076 C4.78120411,24.2936858 6.3318649,26.6196769 9.95007342,26.6196769 C12.6637298,26.6196769 13.5682819,25.4566814 14.2143906,24.0352423 L18.866373,24.0352423 C18.2202643,27.3950073 15.1189427,30.4963289 9.95007342,30.4963289 C3.23054332,30.4963289 -1.14771954e-15,25.4566814 -1.14771954e-15,20.0293686 C-1.14771954e-15,14.0851689 3.48898678,9.56240822 9.82085169,9.56240822 L9.82085169,9.56240822 Z M23.1306902,29.979442 L27.7826725,29.979442 L27.7826725,10.0792952 L23.1306902,10.0792952 L23.1306902,29.979442 L23.1306902,29.979442 Z M25.4566814,0 C27.1365639,0 28.5580029,1.42143906 28.5580029,3.10132159 C28.5580029,3.10132159 28.5580029,3.10132159 28.5580029,3.10132159 C28.5580029,4.78120411 27.1365639,6.20264317 25.4566814,6.20264317 C23.7767988,6.20264317 22.3553598,4.78120411 22.3553598,3.10132159 C22.3553598,1.42143906 23.7767988,0 25.4566814,0 Z M32.8223201,29.979442 L32.8223201,0.129221733 L37.4743025,0.129221733 L37.4743025,18.9955947 L44.8399413,10.2085169 L50.6549192,10.2085169 L42.3847283,20.1585903 L50.6549192,30.1086637 L44.8399413,30.1086637 L37.4743025,21.1923642 L37.4743025,29.979442 L32.8223201,29.979442 Z" id="Shape" fill="#FFFFFF" mask="url(#mask-2)"></path>
                        </g>
                        <g id="Clipped">
                            <mask id="mask-4" fill="white">
                                <use xlink:href="#path-3"></use>
                            </mask>
                            <g id="a_00000004535504557588586520000013004947313631421624_"></g>
                            <path d="M60.8634361,26.3612335 C64.3524229,26.3612335 66.8076358,23.3891336 66.8076358,20.0293686 C66.8076358,16.6696035 64.4816446,13.6975037 60.8634361,13.6975037 C57.3744493,13.6975037 55.0484581,16.6696035 55.0484581,20.0293686 C55.0484581,23.5183554 57.3744493,26.3612335 60.8634361,26.3612335 M60.8634361,9.56240822 C67.195301,9.56240822 71.4596182,14.3436123 71.4596182,20.0293686 C71.4596182,25.7151248 67.3245228,30.4963289 60.8634361,30.4963289 C54.5315712,30.4963289 50.3964758,25.7151248 50.3964758,20.0293686 C50.3964758,14.4728341 54.5315712,9.56240822 60.8634361,9.56240822 M74.8193833,29.979442 L74.8193833,10.0792952 L79.4713656,10.0792952 L79.4713656,12.9221733 C80.763583,10.7254038 82.9603524,9.56240822 85.9324523,9.56240822 C88.7753304,9.56240822 90.7136564,10.5961821 91.876652,12.2760646 C92.9104258,13.8267254 93.1688693,15.3773862 93.1688693,18.2202643 L93.1688693,30.1086637 L88.5168869,30.1086637 L88.5168869,19.7709251 C88.5168869,16.4111601 87.4831131,13.6975037 84.2525698,13.6975037 C81.0220264,13.6975037 79.4713656,16.2819383 79.4713656,19.7709251 L79.4713656,30.1086637 C79.6005874,29.979442 74.8193833,29.979442 74.8193833,29.979442 Z M40.9632893,33.2099853 L0.646108664,33.2099853 L0.646108664,35.4067548 L41.8678414,35.4067548 L40.9632893,33.2099853 Z M43.9353891,33.2099853 L44.969163,35.4067548 L93.814978,35.4067548 L93.814978,33.2099853 L43.9353891,33.2099853 Z" id="Shape" fill="#FFFFFF" mask="url(#mask-4)"></path>
                        </g>
                    </g>
                </g>
            </g>
        </g>
    </g>
</svg>