<?xml version="1.0" encoding="UTF-8"?>
<svg width="117px" height="115px" viewBox="0 0 117 115" version="1.1" xmlns="http://www.w3.org/2000/svg" xmlns:xlink="http://www.w3.org/1999/xlink">
    <title>etat_de_fribourg</title>
    <g id="Page-1" stroke="none" stroke-width="1" fill="none" fill-rule="evenodd">
        <g id="home-Page" transform="translate(-82.000000, -7472.000000)" fill="#FFFFFF" fill-rule="nonzero">
            <g id="partenaires" transform="translate(-74.000000, 7383.000000)">
                <g id="etat_de_fribourg" transform="translate(156.000000, 89.000000)">
                    <path d="M0.63095863,54.9011905 L0.63095863,57.2672853 C7.57150356,55.5321491 14.9852675,51.2731783 19.0864986,47.4874265 C21.7680727,44.963592 24.1341676,41.9665385 26.0270435,38.4962661 C26.0270435,38.4962661 26.1847832,38.3385264 26.1847832,38.1807868 C27.9199194,35.0259936 29.1818367,31.2402418 30.1282746,26.8235314 C32.6521091,14.6775778 28.8663573,2.53162413 28.0776591,0.954227558 C27.1312211,-0.149950045 25.8693038,0.00778961272 24.9228659,0.00778961272 C24.7651262,0.00778961272 24.4496469,0.00778961272 24.2919073,0.00778961272 L0.63095863,0.00778961272 L0.63095863,27.7699693 L18.7710193,27.7699693 C18.9287589,27.7699693 19.2442382,27.7699693 19.2442382,27.7699693 C19.8751969,27.927709 20.3484158,28.2431883 20.3484158,28.874147 C20.3484158,29.0318866 20.3484158,29.1896263 20.3484158,29.3473659 C20.3484158,34.8682539 17.6668417,45.7522903 2.05061555,52.6928352 L0.63095863,53.3237939 L0.63095863,54.9011905 Z" id="Path"></path>
                    <g id="Group" transform="translate(0.000000, 70.359677)">
                        <polygon id="Path" points="0.63095863 0.157739658 6.78280528 0.157739658 6.78280528 1.1041776 1.89287589 1.1041776 1.89287589 3.94349144 6.46732596 3.94349144 6.46732596 4.88992939 1.89287589 4.88992939 1.89287589 7.88698288 6.78280528 7.88698288 6.78280528 8.83342083 0.63095863 8.83342083"></polygon>
                        <polygon id="Path" points="10.4108174 1.1041776 7.57150356 1.1041776 7.57150356 0.157739658 14.6697882 0.157739658 14.6697882 1.1041776 11.6727347 1.1041776 11.6727347 8.99116048 10.4108174 8.99116048"></polygon>
                        <path d="M17.035883,0.157739658 L18.2978003,0.157739658 L21.7680727,8.99116048 L20.5061555,8.99116048 L19.5597175,6.3095863 L15.7739658,6.3095863 L14.8275278,8.99116048 L13.5656106,8.99116048 L17.035883,0.157739658 Z M16.0894451,5.36314836 L19.0864986,5.36314836 L17.6668417,1.26191726 L17.6668417,1.26191726 L16.0894451,5.36314836 Z" id="Shape"></path>
                        <polygon id="Path" points="23.8186883 1.1041776 20.8216348 1.1041776 20.8216348 0.157739658 27.9199194 0.157739658 27.9199194 1.1041776 24.9228659 1.1041776 24.9228659 8.99116048 23.8186883 8.99116048"></polygon>
                        <path d="M32.8098488,0.157739658 L35.8069023,0.157739658 C38.4884765,0.157739658 40.065873,1.57739658 40.065873,4.41671041 C40.065873,7.41376391 38.8039558,8.99116048 35.8069023,8.99116048 L32.8098488,8.99116048 L32.8098488,0.157739658 Z M33.9140264,8.04472254 L35.8069023,8.04472254 C36.5956006,8.04472254 38.8039558,7.88698288 38.8039558,4.57445007 C38.8039558,2.52383452 38.0152575,1.26191726 35.8069023,1.26191726 L33.7562867,1.26191726 L33.7562867,8.04472254 L33.9140264,8.04472254 Z" id="Shape"></path>
                        <polygon id="Path" points="41.6432696 0.157739658 47.7951163 0.157739658 47.7951163 1.1041776 42.9051869 1.1041776 42.9051869 3.94349144 47.4796369 3.94349144 47.4796369 4.88992939 42.9051869 4.88992939 42.9051869 7.88698288 47.7951163 7.88698288 47.7951163 8.83342083 41.6432696 8.83342083 41.6432696 0.157739658"></polygon>
                        <polygon id="Path" points="53.1582646 0.157739658 58.9946319 0.157739658 58.9946319 1.1041776 54.4201819 1.1041776 54.4201819 3.94349144 58.521413 3.94349144 58.521413 4.88992939 54.4201819 4.88992939 54.4201819 8.99116048 53.3160043 8.99116048 53.3160043 0.157739658"></polygon>
                        <path d="M60.4142889,0.157739658 L64.51552,0.157739658 C66.0929165,0.157739658 67.1970941,1.1041776 67.1970941,2.52383452 C67.1970941,3.62801212 66.7238752,4.41671041 65.6196976,4.73218973 L65.6196976,4.73218973 C66.7238752,4.88992939 66.8816148,5.67862767 66.8816148,6.62506562 C66.8816148,7.41376391 66.8816148,8.51794151 67.3548338,8.99116048 L66.0929165,8.99116048 C65.7774372,8.67568117 65.9351769,7.72924322 65.7774372,6.78280528 C65.6196976,5.99410699 65.4619579,5.2054087 64.3577803,5.2054087 L61.6762061,5.2054087 L61.6762061,8.99116048 L60.5720285,8.99116048 L60.5720285,0.157739658 L60.4142889,0.157739658 Z M64.042301,4.25897076 C65.1464786,4.25897076 66.0929165,3.94349144 66.0929165,2.68157418 C66.0929165,1.89287589 65.6196976,1.1041776 64.51552,1.1041776 L61.6762061,1.1041776 L61.6762061,4.1012311 L64.042301,4.1012311 L64.042301,4.25897076 Z" id="Shape"></path>
                        <polygon id="Path" points="69.2477097 0.157739658 70.3518873 0.157739658 70.3518873 8.99116048 69.2477097 8.99116048"></polygon>
                        <path d="M72.5602425,0.157739658 L75.7150356,0.157739658 C76.5037339,0.157739658 77.4501719,0.157739658 78.0811305,0.473218973 C78.7120891,0.788698288 79.1853081,1.41965692 79.1853081,2.36609486 C79.1853081,3.31253281 78.7120891,3.94349144 77.9233909,4.41671041 L77.9233909,4.41671041 C79.0275685,4.57445007 79.6585271,5.52088802 79.6585271,6.46732596 C79.6585271,7.72924322 78.7120891,8.99116048 76.9769529,8.99116048 L72.7179822,8.99116048 L72.7179822,0.157739658 L72.5602425,0.157739658 Z M73.8221598,3.94349144 L76.1882546,3.94349144 C77.4501719,3.94349144 78.0811305,3.47027247 78.0811305,2.52383452 C78.0811305,1.26191726 77.2924322,1.1041776 76.1882546,1.1041776 L73.8221598,1.1041776 L73.8221598,3.94349144 Z M73.8221598,8.04472254 L76.8192132,8.04472254 C77.7656512,8.04472254 78.3966098,7.41376391 78.3966098,6.46732596 C78.3966098,5.36314836 77.4501719,5.04766904 76.5037339,5.04766904 L73.8221598,5.04766904 L73.8221598,8.04472254 L73.8221598,8.04472254 Z" id="Shape"></path>
                        <path d="M85.0216754,0 C87.8609893,0 89.2806462,2.20835521 89.2806462,4.57445007 C89.2806462,6.94054493 87.8609893,9.14890014 85.0216754,9.14890014 C82.1823616,9.14890014 80.7627047,6.94054493 80.7627047,4.57445007 C80.7627047,2.20835521 82.1823616,0 85.0216754,0 Z M85.0216754,8.20246219 C87.2300307,8.20246219 88.0187289,6.3095863 88.0187289,4.57445007 C88.0187289,2.83931384 87.072291,0.946437946 85.0216754,0.946437946 C82.8133202,0.946437946 82.0246219,2.83931384 82.0246219,4.57445007 C82.0246219,6.3095863 82.8133202,8.20246219 85.0216754,8.20246219 Z" id="Shape"></path>
                        <path d="M97.9563274,5.83636733 C97.9563274,8.04472254 96.6944101,9.3066398 94.4860549,9.3066398 C92.2776997,9.3066398 90.8580428,8.20246219 90.8580428,5.83636733 L90.8580428,0.157739658 L91.9622204,0.157739658 L91.9622204,5.83636733 C91.9622204,7.41376391 92.9086583,8.20246219 94.3283152,8.20246219 C95.7479722,8.20246219 96.6944101,7.41376391 96.6944101,5.83636733 L96.6944101,0.157739658 L97.9563274,0.157739658 L97.9563274,5.83636733 Z" id="Path"></path>
                        <path d="M100.006943,0.157739658 L104.265914,0.157739658 C105.84331,0.157739658 106.947488,1.1041776 106.947488,2.52383452 C106.947488,3.62801212 106.474269,4.41671041 105.370091,4.73218973 L105.370091,4.73218973 C106.474269,4.88992939 106.632009,5.67862767 106.632009,6.62506562 C106.632009,7.41376391 106.632009,8.51794151 107.105228,8.99116048 L105.84331,8.99116048 C105.527831,8.67568117 105.685571,7.72924322 105.527831,6.78280528 C105.370091,5.99410699 105.212352,5.2054087 104.108174,5.2054087 L101.26886,5.2054087 L101.26886,8.99116048 L100.164683,8.99116048 L100.164683,0.157739658 L100.006943,0.157739658 Z M103.634955,4.25897076 C104.739133,4.25897076 105.685571,3.94349144 105.685571,2.68157418 C105.685571,1.89287589 105.212352,1.1041776 104.108174,1.1041776 L101.26886,1.1041776 L101.26886,4.1012311 L103.634955,4.1012311 L103.634955,4.25897076 Z" id="Shape"></path>
                        <path d="M115.30769,7.88698288 C114.676731,8.83342083 113.572553,9.14890014 112.468376,9.14890014 C109.786802,9.14890014 108.209405,6.94054493 108.209405,4.73218973 C108.209405,2.20835521 109.629062,0 112.468376,0 C114.361252,0 115.938648,0.788698288 116.254128,2.99705349 L115.14995,2.99705349 C114.99221,1.73513623 113.888033,1.1041776 112.468376,1.1041776 C110.260021,1.1041776 109.471322,2.99705349 109.471322,4.88992939 C109.471322,6.78280528 110.5755,8.36020185 112.468376,8.36020185 C114.361252,8.36020185 115.30769,7.09828459 115.30769,5.52088802 L112.468376,5.52088802 L112.468376,4.57445007 L116.254128,4.57445007 L116.254128,9.14890014 L115.465429,9.14890014 L115.30769,7.88698288 Z" id="Path"></path>
                        <path d="M5.67862767,20.3484158 C5.52088802,19.0864986 4.73218973,18.6132796 3.47027247,18.6132796 C2.52383452,18.6132796 1.41965692,18.9287589 1.41965692,20.1906762 C1.41965692,21.2948538 2.83931384,21.4525934 4.25897076,21.7680727 C5.67862767,22.0835521 7.09828459,22.556771 7.09828459,24.2919073 C7.09828459,26.1847832 5.2054087,26.9734814 3.62801212,26.9734814 C1.57739658,26.9734814 0,26.0270435 0,23.8186883 L1.1041776,23.8186883 C1.1041776,25.2383452 2.36609486,25.8693038 3.62801212,25.8693038 C4.73218973,25.8693038 5.83636733,25.5538245 5.83636733,24.2919073 C5.83636733,23.02999 4.41671041,22.8722504 2.99705349,22.556771 C1.57739658,22.2412917 0.157739658,21.7680727 0.157739658,20.1906762 C0.157739658,18.4555399 1.73513623,17.6668417 3.31253281,17.6668417 C5.04766904,17.6668417 6.46732596,18.4555399 6.62506562,20.5061555 L5.67862767,20.5061555 L5.67862767,20.3484158 Z" id="Path"></path>
                        <polygon id="Path" points="10.4108174 18.7710193 7.41376391 18.7710193 7.41376391 17.8245813 14.5120485 17.8245813 14.5120485 18.7710193 11.514995 18.7710193 11.514995 26.6580021 10.4108174 26.6580021"></polygon>
                        <path d="M17.035883,17.8245813 L18.2978003,17.8245813 L21.7680727,26.6580021 L20.5061555,26.6580021 L19.5597175,23.976428 L15.7739658,23.976428 L14.8275278,26.6580021 L13.5656106,26.6580021 L17.035883,17.8245813 Z M16.0894451,23.02999 L19.0864986,23.02999 L17.6668417,18.9287589 L17.6668417,18.9287589 L16.0894451,23.02999 Z" id="Shape"></path>
                        <path d="M25.2383452,17.8245813 L26.5002625,17.8245813 L29.9705349,26.6580021 L28.7086177,26.6580021 L27.7621797,23.976428 L23.976428,23.976428 L23.02999,26.6580021 L21.7680727,26.6580021 L25.2383452,17.8245813 Z M24.2919073,23.02999 L27.2889608,23.02999 L25.8693038,18.9287589 L25.8693038,18.9287589 L24.2919073,23.02999 Z" id="Shape"></path>
                        <polygon id="Path" points="32.0211505 18.7710193 29.024097 18.7710193 29.024097 17.8245813 36.1223816 17.8245813 36.1223816 18.7710193 33.1253281 18.7710193 33.1253281 26.6580021 32.0211505 26.6580021 32.0211505 18.7710193"></polygon>
                        <polygon id="Path" points="41.012311 17.8245813 46.8486783 17.8245813 46.8486783 18.7710193 42.2742282 18.7710193 42.2742282 21.6103331 46.3754593 21.6103331 46.3754593 22.556771 42.2742282 22.556771 42.2742282 26.6580021 41.1700506 26.6580021 41.1700506 17.8245813"></polygon>
                        <path d="M48.2683352,17.8245813 L52.3695663,17.8245813 C53.9469629,17.8245813 55.0511405,18.7710193 55.0511405,20.1906762 C55.0511405,21.2948538 54.5779215,22.0835521 53.4737439,22.3990314 L53.4737439,22.3990314 C54.4201819,22.556771 54.7356612,23.3454693 54.7356612,24.2919073 C54.7356612,25.0806056 54.7356612,26.1847832 55.2088802,26.6580021 L53.9469629,26.6580021 C53.6314836,26.3425228 53.7892232,25.3960849 53.6314836,24.4496469 C53.4737439,23.6609486 53.3160043,22.8722504 52.2118267,22.8722504 L49.3725128,22.8722504 L49.3725128,26.6580021 L48.2683352,26.6580021 L48.2683352,17.8245813 Z M51.8963473,21.9258124 C53.000525,21.9258124 53.9469629,21.6103331 53.9469629,20.3484158 C53.9469629,19.5597175 53.4737439,18.7710193 52.3695663,18.7710193 L49.5302525,18.7710193 L49.5302525,21.7680727 L51.8963473,21.7680727 L51.8963473,21.9258124 Z" id="Shape"></path>
                        <polygon id="Path" points="56.9440164 17.8245813 63.095863 17.8245813 63.095863 18.7710193 58.2059337 18.7710193 58.2059337 21.6103331 62.7803837 21.6103331 62.7803837 22.556771 58.2059337 22.556771 58.2059337 25.5538245 63.095863 25.5538245 63.095863 26.5002625 56.9440164 26.5002625"></polygon>
                        <polygon id="Path" points="64.8309993 17.8245813 65.9351769 17.8245813 65.9351769 26.6580021 64.8309993 26.6580021"></polygon>
                        <path d="M68.1435321,17.8245813 L71.2983252,17.8245813 C72.0870235,17.8245813 73.0334615,17.8245813 73.6644201,18.1400606 C74.2953787,18.4555399 74.7685977,19.0864986 74.7685977,20.0329365 C74.7685977,20.9793745 74.2953787,21.6103331 73.5066804,22.0835521 L73.5066804,22.0835521 C74.610858,22.2412917 75.2418167,23.1877297 75.2418167,24.1341676 C75.2418167,25.3960849 74.2953787,26.6580021 72.5602425,26.6580021 L68.3012717,26.6580021 L68.3012717,17.8245813 L68.1435321,17.8245813 Z M69.4054493,21.6103331 L71.7715442,21.6103331 C73.0334615,21.6103331 73.6644201,21.1371141 73.6644201,20.1906762 C73.6644201,18.9287589 72.8757218,18.7710193 71.7715442,18.7710193 L69.4054493,18.7710193 L69.4054493,21.6103331 Z M69.4054493,25.7115642 L72.4025028,25.7115642 C73.3489408,25.7115642 73.9798994,25.0806056 73.9798994,24.1341676 C73.9798994,23.02999 73.0334615,22.7145107 72.0870235,22.7145107 L69.4054493,22.7145107 L69.4054493,25.7115642 L69.4054493,25.7115642 Z" id="Shape"></path>
                        <path d="M83.9174978,23.503209 C83.9174978,25.7115642 82.6555806,26.9734814 80.4472254,26.9734814 C78.2388702,26.9734814 76.8192132,25.8693038 76.8192132,23.503209 L76.8192132,17.8245813 L77.9233909,17.8245813 L77.9233909,23.503209 C77.9233909,25.0806056 78.8698288,25.8693038 80.2894857,25.8693038 C81.7091426,25.8693038 82.6555806,25.0806056 82.6555806,23.503209 L82.6555806,17.8245813 L83.7597582,17.8245813 L83.7597582,23.503209 L83.9174978,23.503209 Z" id="Path"></path>
                        <path d="M85.9681134,17.8245813 L90.0693445,17.8245813 C91.6467411,17.8245813 92.7509187,18.7710193 92.7509187,20.1906762 C92.7509187,21.2948538 92.2776997,22.0835521 91.1735221,22.3990314 L91.1735221,22.3990314 C92.11996,22.556771 92.4354394,23.3454693 92.4354394,24.2919073 C92.4354394,25.0806056 92.4354394,26.1847832 92.9086583,26.6580021 L91.6467411,26.6580021 C91.3312617,26.3425228 91.4890014,25.3960849 91.3312617,24.4496469 C91.1735221,23.6609486 91.0157824,22.8722504 89.9116048,22.8722504 L87.072291,22.8722504 L87.072291,26.6580021 L85.9681134,26.6580021 L85.9681134,17.8245813 Z M89.5961255,21.9258124 C90.7003031,21.9258124 91.6467411,21.6103331 91.6467411,20.3484158 C91.6467411,19.5597175 91.1735221,18.7710193 90.0693445,18.7710193 L87.2300307,18.7710193 L87.2300307,21.7680727 L89.5961255,21.7680727 L89.5961255,21.9258124 Z" id="Shape"></path>
                        <path d="M101.26886,25.5538245 C100.637902,26.5002625 99.5337239,26.8157418 98.4295463,26.8157418 C95.7479722,26.8157418 94.1705756,24.6073866 94.1705756,22.3990314 C94.1705756,19.8751969 95.5902325,17.6668417 98.4295463,17.6668417 C100.322422,17.6668417 101.899819,18.4555399 102.215298,20.6638951 L101.111121,20.6638951 C100.953381,19.4019779 99.8492033,18.7710193 98.4295463,18.7710193 C96.2211911,18.7710193 95.4324928,20.6638951 95.4324928,22.556771 C95.4324928,24.4496469 96.5366704,26.0270435 98.4295463,26.0270435 C100.322422,26.0270435 101.26886,24.7651262 101.26886,23.1877297 L98.4295463,23.1877297 L98.4295463,22.2412917 L102.215298,22.2412917 L102.215298,26.8157418 L101.4266,26.8157418 L101.26886,25.5538245 Z" id="Path"></path>
                        <polygon id="Path" points="6.15184665 44.3248438 5.36314836 44.3248438 3.94349144 39.2771747 3.94349144 39.2771747 2.52383452 44.3248438 1.73513623 44.3248438 0.157739658 38.3307368 0.946437946 38.3307368 2.20835521 43.2206662 2.20835521 43.2206662 3.62801212 38.1729971 4.57445007 38.1729971 5.67862767 43.2206662 5.67862767 43.2206662 6.94054493 38.1729971 7.72924322 38.1729971"></polygon>
                        <polygon id="Path" points="14.1965692 44.3248438 13.4078709 44.3248438 11.988214 39.2771747 11.988214 39.2771747 10.5685571 44.3248438 9.77985877 44.3248438 8.20246219 38.3307368 8.99116048 38.3307368 10.2530777 43.2206662 10.2530777 43.2206662 11.6727347 38.1729971 12.6191726 38.1729971 13.7233502 43.2206662 13.7233502 43.2206662 14.9852675 38.1729971 15.7739658 38.1729971"></polygon>
                        <polygon id="Path" points="22.2412917 44.3248438 21.4525934 44.3248438 20.0329365 39.2771747 20.0329365 39.2771747 18.6132796 44.3248438 17.8245813 44.3248438 16.2471847 38.3307368 17.035883 38.3307368 18.2978003 43.3784058 18.2978003 43.3784058 19.7174572 38.3307368 20.6638951 38.3307368 21.9258124 43.3784058 21.9258124 43.3784058 23.1877297 38.3307368 23.8186883 38.3307368"></polygon>
                        <polygon id="Path" points="24.1341676 43.3784058 25.0806056 43.3784058 25.0806056 44.3248438 24.1341676 44.3248438"></polygon>
                        <polygon id="Path" points="26.6580021 38.1729971 30.6014936 38.1729971 30.6014936 38.8039558 27.4467004 38.8039558 27.4467004 40.6968317 30.2860143 40.6968317 30.2860143 41.3277903 27.4467004 41.3277903 27.4467004 44.1671041 26.6580021 44.1671041"></polygon>
                        <path d="M31.7056712,38.1729971 L34.544985,38.1729971 C35.6491626,38.1729971 36.4378609,38.8039558 36.4378609,39.7503937 C36.4378609,40.539092 36.1223816,41.012311 35.3336833,41.3277903 L35.3336833,41.3277903 C35.9646419,41.4855299 36.1223816,41.9587489 36.2801212,42.5897076 C36.2801212,43.2206662 36.2801212,43.8516248 36.5956006,44.3248438 L35.6491626,44.3248438 C35.491423,44.0093645 35.491423,43.3784058 35.491423,42.9051869 C35.3336833,42.2742282 35.3336833,41.8010093 34.544985,41.8010093 L32.6521091,41.8010093 L32.6521091,44.3248438 L31.7056712,44.3248438 L31.7056712,38.1729971 Z M34.2295057,41.012311 C35.018204,41.012311 35.6491626,40.8545713 35.6491626,39.9081334 C35.6491626,39.2771747 35.3336833,38.8039558 34.544985,38.8039558 L32.4943695,38.8039558 L32.4943695,40.8545713 L34.2295057,40.8545713 L34.2295057,41.012311 Z" id="Shape"></path>
                        <polygon id="Path" points="37.6997782 43.3784058 38.6462161 43.3784058 38.6462161 44.3248438 37.6997782 44.3248438"></polygon>
                        <path d="M44.4825834,40.065873 C44.3248438,39.2771747 43.6938852,38.8039558 42.7474472,38.8039558 C41.3277903,38.8039558 40.6968317,40.065873 40.6968317,41.3277903 C40.6968317,42.7474472 41.3277903,43.8516248 42.7474472,43.8516248 C43.8516248,43.8516248 44.4825834,43.0629265 44.4825834,42.1164886 L45.2712817,42.1164886 C45.1135421,43.6938852 44.1671041,44.4825834 42.5897076,44.4825834 C40.6968317,44.4825834 39.7503937,43.0629265 39.7503937,41.3277903 C39.7503937,39.5926541 40.6968317,38.1729971 42.5897076,38.1729971 C43.8516248,38.1729971 44.9558024,38.8039558 45.1135421,40.065873 L44.4825834,40.065873 Z" id="Path"></path>
                        <polygon id="Path" points="46.533199 38.1729971 47.3218973 38.1729971 47.3218973 40.6968317 50.4766904 40.6968317 50.4766904 38.1729971 51.2653887 38.1729971 51.2653887 44.1671041 50.4766904 44.1671041 50.4766904 41.3277903 47.3218973 41.3277903 47.3218973 44.1671041 46.533199 44.1671041"></polygon>
                    </g>
                </g>
            </g>
        </g>
    </g>
</svg>