<?xml version="1.0" encoding="UTF-8"?>
<svg width="229px" height="80px" viewBox="0 0 229 80" version="1.1" xmlns="http://www.w3.org/2000/svg" xmlns:xlink="http://www.w3.org/1999/xlink">
    <title>fri-son</title>
    <g id="Page-1" stroke="none" stroke-width="1" fill="none" fill-rule="evenodd">
        <g id="home-Page" transform="translate(-1027.000000, -7486.000000)" fill="#FFFFFF" fill-rule="nonzero">
            <g id="partenaires" transform="translate(-74.000000, 7383.000000)">
                <g id="fri-son" transform="translate(1101.000000, 103.000000)">
                    <g id="Group">
                        <path d="M155.518857,31.1908571 C144.888,31.1908571 135.928,38.0251429 132.589714,47.5005714 C130.826286,42.5382857 127.533714,38.2902857 123.254857,35.3851429 C119.739429,32.9908571 117.411429,28.9954286 117.411429,24.4571429 C117.411429,17.256 123.340571,11.3805714 130.594286,11.3805714 L130.594286,0.107428571 C117.154286,0.107428571 106.156571,10.9531429 106.156571,24.4582857 C106.156571,32.8628571 110.408,40.2891429 116.860571,44.6925714 L116.860571,44.7097143 C120.396571,47.0788571 122.722286,51.1017143 122.722286,55.6525714 C122.722286,62.8422857 116.793143,68.7257143 109.542857,68.7257143 C102.329143,68.7257143 96.4685714,62.8422857 96.4685714,55.6525714 L85.192,55.6525714 C85.1908571,69.0457143 96.1417143,80 109.540571,80 C120.158857,80 129.228571,73.2137143 132.587429,63.7165714 C135.937143,73.176 144.964571,80 155.518857,80 C168.974857,80 179.974857,69.152 179.974857,55.6491429 C179.976,42.1485714 169.016,31.1908571 155.518857,31.1908571 M155.518857,68.7245714 C148.325714,68.7245714 142.446857,62.84 142.446857,55.6502857 C142.446857,48.3954286 148.328,42.4697143 155.518857,42.4697143 C162.772571,42.4697143 168.698286,48.3988571 168.698286,55.6502857 C168.698286,62.8388571 162.772571,68.7245714 155.518857,68.7245714" id="Shape"></path>
                        <path d="M217.508571,78.9097143 L228.934857,78.9097143 L228.934857,55.6491429 C228.934857,42.1485714 217.832,31.1885714 204.436571,31.1885714 C190.930286,31.1885714 179.974857,42.1485714 179.974857,55.6491429 L179.974857,78.9348571 L191.256,78.9348571 L191.256,55.6491429 C191.256,48.4594286 197.182857,42.4685714 204.436571,42.4685714 C211.625143,42.4685714 217.508571,48.4594286 217.508571,55.6491429 L217.508571,78.9097143 L217.508571,78.9097143 Z" id="Path"></path>
                        <path d="M65.9508571,30.1554286 L65.9508571,30.1554286 C58.4548571,30.1554286 51.7257143,33.6022857 47.248,38.9771429 C42.7737143,33.6011429 36.0228571,30.1554286 28.5257143,30.1554286 L25.496,30.1554286 L25.496,24.3508571 C25.496,17.1611429 31.4228571,11.28 38.6777143,11.28 L38.6777143,0 C25.2377143,0 14.2182857,10.8525714 14.2182857,24.3508571 L14.2182857,30.1554286 L0,30.1554286 L0,41.432 L14.2182857,41.432 L14.2182857,78.9988571 L25.496,78.9988571 L25.496,41.432 L28.5257143,41.432 C35.736,41.432 41.5977143,47.2971429 41.5977143,54.5062857 L41.5977143,78.9462857 L52.8788571,78.9462857 L52.8788571,54.5062857 C52.8788571,47.296 58.7611429,41.432 65.9508571,41.432 L68.9851429,41.432 L68.9851429,78.9462857 L80.2594286,78.9462857 L80.2594286,30.1554286 L65.9508571,30.1554286 Z" id="Path"></path>
                        <polygon id="Path" points="103.086857 30.1554286 85.1394286 41.432 85.1394286 52.992 103.086857 41.9977143"></polygon>
                    </g>
                    <rect id="Rectangle" x="68.9817143" y="0.112" width="11.2742857" height="27.008"></rect>
                </g>
            </g>
        </g>
    </g>
</svg>