<?xml version="1.0" encoding="UTF-8"?>
<svg width="202px" height="71px" viewBox="0 0 202 71" version="1.1" xmlns="http://www.w3.org/2000/svg" xmlns:xlink="http://www.w3.org/1999/xlink">
    <title>lotterie_romande_black</title>
    <g id="Page-1" stroke="none" stroke-width="1" fill="none" fill-rule="evenodd">
        <g id="home-Page" transform="translate(-711.000000, -7494.000000)" fill="#FFFFFF" fill-rule="nonzero">
            <g id="partenaires" transform="translate(-74.000000, 7383.000000)">
                <g id="lotterie_romande_black" transform="translate(785.703947, 111.600000)">
                    <path d="M14.701417,31.847166 C14.701417,24.0890688 20.9362348,17.7479757 28.6234818,17.7479757 C36.3107287,17.7479757 42.5809717,24.0890688 42.5809717,31.847166 C42.5809717,39.6052632 36.3107287,45.9110789 28.6234818,45.9110789 C20.9716599,45.9463563 14.701417,39.6052632 14.701417,31.847166 Z M200.824899,0 L200.824899,70 L0,70 L0,0 L200.824899,0 Z M6.62449393,27.3481781 C6.62449393,39.534413 16.4726721,49.4180162 28.6589069,49.4180162 C40.8451417,49.4180162 50.6933198,39.534413 50.6933198,27.3481781 C50.6933198,15.1265182 40.8451417,5.24291498 28.6589069,5.24291498 C16.4726721,5.24291498 6.62449393,15.1265182 6.62449393,27.3481781 Z M1.52327935,11.3360324 C3.79048583,7.43927126 6.90789474,4.10931174 10.5566802,1.52327935 L1.52327935,1.52327935 L1.52327935,11.3360324 Z M199.301619,1.52327935 L46.7611336,1.52327935 C54.8734818,7.22672065 60.1518219,16.6497976 60.1518219,27.3481781 C60.1518219,44.7773279 46.0526316,58.9119433 28.6589069,58.9119433 C17.1103239,58.9119433 7.01417004,52.6771255 1.52327935,43.3603239 L1.52327935,68.4767206 L199.301619,68.4767206 L199.301619,1.52327935 Z M89.3421053,14.1346154 L94.9038462,14.1346154 L94.9038462,25.7894737 L100.359312,25.7894737 L100.359312,30.5364372 L89.3421053,30.5364372 L89.3421053,14.1346154 L89.3421053,14.1346154 Z M102.378543,22.2469636 C102.378543,20.9362348 102.626518,19.7317814 103.087045,18.6690283 C103.547571,17.6062753 104.185223,16.7206478 105,15.9767206 C105.814777,15.2327935 106.771255,14.6659919 107.904858,14.2763158 C109.003036,13.8866397 110.20749,13.6740891 111.518219,13.6740891 C112.828947,13.6740891 114.033401,13.8866397 115.131579,14.2763158 C116.229757,14.6659919 117.22166,15.2682186 118.036437,15.9767206 C118.851215,16.7206478 119.488866,17.6062753 119.949393,18.6690283 C120.409919,19.7317814 120.657895,20.9362348 120.657895,22.2469636 C120.657895,23.5576923 120.409919,24.7621457 119.949393,25.8603239 C119.488866,26.958502 118.851215,27.8795547 118.036437,28.6234818 C117.22166,29.402834 116.265182,29.9696356 115.131579,30.3947368 C114.033401,30.8198381 112.793522,31.0323887 111.518219,31.0323887 C110.20749,31.0323887 109.003036,30.8198381 107.904858,30.3947368 C106.80668,29.9696356 105.814777,29.402834 105,28.6234818 C104.185223,27.8441296 103.547571,26.9230769 103.087045,25.8603239 C102.626518,24.7621457 102.378543,23.5576923 102.378543,22.2469636 Z M108.259109,22.2469636 C108.259109,22.7783401 108.32996,23.2742915 108.507085,23.7348178 C108.684211,24.1953441 108.896761,24.5850202 109.180162,24.9038462 C109.463563,25.2226721 109.817814,25.4706478 110.20749,25.6477733 C110.597166,25.8248988 111.057692,25.9311741 111.518219,25.9311741 C111.978745,25.9311741 112.403846,25.8603239 112.793522,25.6477733 C113.183198,25.4706478 113.537449,25.2226721 113.82085,24.9038462 C114.104251,24.5850202 114.352227,24.1953441 114.493927,23.7348178 C114.671053,23.2742915 114.741903,22.7783401 114.741903,22.2469636 C114.741903,21.715587 114.671053,21.2550607 114.493927,20.7945344 C114.316802,20.3694332 114.104251,19.9797571 113.82085,19.6963563 C113.537449,19.4129555 113.183198,19.1649798 112.793522,18.9878543 C112.403846,18.8107287 111.978745,18.7398785 111.518219,18.7398785 C111.057692,18.7398785 110.632591,18.8107287 110.20749,18.9878543 C109.817814,19.1649798 109.463563,19.4129555 109.180162,19.6963563 C108.896761,19.9797571 108.684211,20.3694332 108.507085,20.7945344 C108.365385,21.2550607 108.259109,21.715587 108.259109,22.2469636 Z M132.029352,30.5718623 L126.503036,30.5718623 L126.503036,18.7753036 L122.464575,18.7753036 L122.464575,14.1346154 L136.067814,14.1346154 L136.067814,18.7753036 L132.029352,18.7753036 L132.029352,30.5718623 Z M139.114372,14.1346154 L150.41498,14.1346154 L150.41498,18.7398785 L144.321862,18.7398785 L144.321862,20.1568826 L150.060729,20.1568826 L150.060729,24.4433198 L144.321862,24.4433198 L144.321862,25.9665992 L150.840081,25.9665992 L150.840081,30.5718623 L139.149798,30.5718623 L139.149798,14.1346154 L139.114372,14.1346154 Z M154.488866,14.1346154 L161.573887,14.1346154 C162.388664,14.1346154 163.168016,14.2054656 163.982794,14.3825911 C164.797571,14.5597166 165.506073,14.8431174 166.1083,15.2327935 C166.745951,15.6578947 167.241903,16.1892713 167.631579,16.8977733 C168.021255,17.5708502 168.198381,18.4564777 168.198381,19.4838057 C168.198381,20.4757085 167.950405,21.361336 167.454453,22.1406883 C166.958502,22.9200405 166.25,23.4868421 165.328947,23.9119433 L169.509109,30.5718623 L163.168016,30.5718623 L160.015182,24.6912955 L159.838057,24.6912955 L159.838057,30.5718623 L154.488866,30.5718623 L154.488866,14.1346154 L154.488866,14.1346154 Z M159.802632,21.0779352 L160.90081,21.0779352 C161.077935,21.0779352 161.290486,21.0779352 161.503036,21.0425101 C161.715587,21.007085 161.928138,20.9362348 162.140688,20.8299595 C162.317814,20.7236842 162.494939,20.5819838 162.63664,20.4048583 C162.77834,20.2277328 162.84919,19.9797571 162.84919,19.6963563 C162.84919,19.4129555 162.77834,19.1649798 162.672065,18.9878543 C162.565789,18.8107287 162.424089,18.7044534 162.246964,18.5981781 C162.069838,18.5273279 161.892713,18.4564777 161.715587,18.4210526 C161.503036,18.3856275 161.325911,18.3856275 161.148785,18.3856275 L159.838057,18.3856275 L159.838057,21.0779352 L159.802632,21.0779352 Z M171.563765,14.1346154 L177.125506,14.1346154 L177.125506,30.5718623 L171.563765,30.5718623 L171.563765,14.1346154 Z M180.632591,14.1346154 L191.933198,14.1346154 L191.933198,18.7398785 L185.840081,18.7398785 L185.840081,20.1568826 L191.578947,20.1568826 L191.578947,24.4433198 L185.840081,24.4433198 L185.840081,25.9665992 L192.3583,25.9665992 L192.3583,30.5718623 L180.668016,30.5718623 L180.668016,14.1346154 L180.632591,14.1346154 Z M64.757085,38.1174089 L71.8066802,38.1174089 C72.6214575,38.1174089 73.4008097,38.1882591 74.215587,38.3653846 C74.9949393,38.5425101 75.7034413,38.8259109 76.3410931,39.215587 C76.9787449,39.6406883 77.4746964,40.1720648 77.8643725,40.8805668 C78.2540486,41.5536437 78.4311741,42.4392713 78.4311741,43.4665992 C78.4311741,44.458502 78.1831984,45.3441296 77.687247,46.1234818 C77.1912955,46.902834 76.4827935,47.4696356 75.5617409,47.8947368 L79.7064777,54.5546559 L73.3653846,54.5546559 L70.2125506,48.7095142 L70.0354251,48.7095142 L70.0354251,54.5546559 L64.6862348,54.5546559 L64.6862348,38.1174089 L64.757085,38.1174089 Z M70.0708502,45.0253036 L71.1336032,45.0253036 C71.3107287,45.0253036 71.5232794,45.0253036 71.73583,44.9898785 C71.9483806,44.9544534 72.1609312,44.8836032 72.3380567,44.7773279 C72.5151822,44.6710526 72.6923077,44.5293522 72.8340081,44.3522267 C72.9757085,44.1751012 73.0111336,43.9271255 73.0111336,43.6437247 C73.0111336,43.3603239 72.9402834,43.1123482 72.8340081,42.9352227 C72.7277328,42.7580972 72.5860324,42.6518219 72.4089069,42.5455466 C72.2317814,42.4746964 72.0546559,42.4038462 71.8421053,42.3684211 C71.6295547,42.332996 71.4524291,42.332996 71.2753036,42.332996 L69.9645749,42.332996 L69.9645749,45.0253036 L70.0708502,45.0253036 Z M80.6275304,46.2297571 C80.6275304,44.9190283 80.8755061,43.75 81.3360324,42.687247 C81.7965587,41.6244939 82.4342105,40.7388664 83.2489879,39.9949393 C84.0637652,39.2510121 85.0202429,38.6842105 86.1184211,38.2945344 C87.2165992,37.9048583 88.4564777,37.6923077 89.7317814,37.6923077 C91.0425101,37.6923077 92.2469636,37.9048583 93.3451417,38.2945344 C94.4433198,38.6842105 95.4352227,39.2510121 96.25,39.9949393 C97.0647773,40.7388664 97.7024291,41.6244939 98.1629555,42.687247 C98.6234818,43.75 98.8714575,44.9190283 98.8714575,46.2297571 C98.8714575,47.5404858 98.6234818,48.7449393 98.1629555,49.8076923 C97.7024291,50.9058704 97.0647773,51.8269231 96.25,52.5708502 C95.4352227,53.3502024 94.4787449,53.917004 93.3451417,54.3421053 C92.2469636,54.7672065 91.0425101,54.9797571 89.7317814,54.9797571 C88.4210526,54.9797571 87.2165992,54.7672065 86.1184211,54.3421053 C85.0202429,53.917004 84.0637652,53.3502024 83.2489879,52.5708502 C82.4342105,51.791498 81.7965587,50.8704453 81.3360324,49.8076923 C80.840081,48.7449393 80.6275304,47.5404858 80.6275304,46.2297571 Z M86.4726721,46.2297571 C86.4726721,46.7611336 86.5435223,47.257085 86.7206478,47.7176113 C86.8977733,48.1781377 87.1103239,48.5678138 87.3937247,48.8866397 C87.6771255,49.2054656 88.0313765,49.4534413 88.4210526,49.6305668 C88.8107287,49.8076923 89.2712551,49.9139676 89.7317814,49.9139676 C90.1923077,49.9139676 90.6174089,49.8076923 91.007085,49.6305668 C91.3967611,49.4534413 91.7510121,49.2054656 92.034413,48.8866397 C92.3178138,48.5678138 92.5657895,48.1781377 92.7074899,47.7176113 C92.8491903,47.257085 92.9554656,46.7611336 92.9554656,46.2297571 C92.9554656,45.6983806 92.8846154,45.2378543 92.7074899,44.7773279 C92.5303644,44.3522267 92.3178138,43.9625506 92.034413,43.6791498 C91.7510121,43.395749 91.3967611,43.1477733 91.007085,42.9706478 C90.6174089,42.7935223 90.1923077,42.7226721 89.7317814,42.7226721 C89.2712551,42.7226721 88.8461538,42.7935223 88.4210526,42.9706478 C88.0313765,43.1477733 87.6771255,43.395749 87.3937247,43.6791498 C87.1103239,43.9979757 86.8977733,44.3522267 86.7206478,44.7773279 C86.5435223,45.2024291 86.4726721,45.6983806 86.4726721,46.2297571 Z M106.062753,45.2378543 L106.310729,54.5192308 L101.174089,54.5192308 L101.174089,38.1174089 L108.40081,38.1174089 L111.376518,46.9382591 L111.482794,46.9382591 L114.068826,38.1174089 L121.508097,38.1174089 L121.508097,54.5192308 L116.123482,54.5192308 L116.300607,45.3087045 L116.158907,45.2732794 L113.112348,54.5192308 L109.215587,54.5192308 L106.204453,45.2378543 L106.062753,45.2378543 L106.062753,45.2378543 Z M129.903846,38.1174089 L135.748988,38.1174089 L142.125506,54.5192308 L136.138664,54.5192308 L135.288462,52.1103239 L130.080972,52.1103239 L129.266194,54.5192308 L123.421053,54.5192308 L129.903846,38.1174089 Z M132.737854,43.8208502 L131.3917,47.8947368 L134.048583,47.8947368 L132.737854,43.8208502 Z M144.109312,38.1174089 L149.600202,38.1174089 L154.276316,46.4423077 L154.382591,46.4423077 L154.17004,38.1174089 L159.412955,38.1174089 L159.412955,54.5192308 L153.744939,54.5192308 L149.210526,46.6902834 L149.104251,46.6902834 L149.352227,54.5192308 L144.109312,54.5192308 L144.109312,38.1174089 L144.109312,38.1174089 Z M162.424089,54.5192308 L162.424089,38.1174089 L168.552632,38.1174089 C169.86336,38.1174089 171.103239,38.2591093 172.272267,38.507085 C173.441296,38.7550607 174.504049,39.215587 175.389676,39.8178138 C176.310729,40.4554656 177.019231,41.2702429 177.550607,42.2975709 C178.081984,43.3248988 178.365385,44.6356275 178.365385,46.194332 C178.365385,47.6467611 178.117409,48.8866397 177.586032,49.9139676 C177.054656,50.9767206 176.381579,51.8269231 175.495951,52.5 C174.645749,53.1730769 173.618421,53.6690283 172.520243,53.9878543 C171.38664,54.3066802 170.217611,54.4838057 169.013158,54.4838057 L162.424089,54.4838057 L162.424089,54.5192308 Z M167.737854,42.7935223 L167.737854,49.7722672 L168.765182,49.7722672 C170.075911,49.7722672 171.067814,49.4888664 171.740891,48.9220648 C172.449393,48.3552632 172.768219,47.4342105 172.768219,46.1589069 C172.768219,45.0961538 172.413968,44.2813765 171.740891,43.6791498 C171.032389,43.0769231 170.111336,42.7935223 168.942308,42.7935223 L167.737854,42.7935223 L167.737854,42.7935223 Z M180.668016,38.1174089 L191.933198,38.1174089 L191.933198,42.687247 L185.840081,42.687247 L185.840081,44.104251 L191.543522,44.104251 L191.543522,48.3906883 L185.840081,48.3906883 L185.840081,49.9139676 L192.3583,49.9139676 L192.3583,54.4838057 L180.668016,54.4838057 L180.668016,38.1174089 Z" id="Shape"></path>
                </g>
            </g>
        </g>
    </g>
</svg>