<?xml version="1.0" encoding="UTF-8"?>
<svg width="395px" height="84px" viewBox="0 0 395 84" version="1.1" xmlns="http://www.w3.org/2000/svg" xmlns:xlink="http://www.w3.org/1999/xlink">
    <title>eikonica copy 2</title>
    <g id="Page-1" stroke="none" stroke-width="1" fill="none" fill-rule="evenodd">
        <g id="home-Page-hover" transform="translate(-124.000000, -7645.000000)" fill="#FFFFFF" fill-rule="nonzero">
            <g id="footer" transform="translate(64.000000, 7629.000000)">
                <g id="eikonica-copy-2" transform="translate(60.000000, 16.000000)">
                    <path d="M51.0701513,40.9023384 L51.0701513,54.4209078 C51.0701513,56.9628611 48.9903714,58.9270977 46.5639615,58.9270977 L14.3273728,58.9270977 C11.7854195,58.9270977 9.82118294,61.0068776 9.82118294,63.4332875 L9.82118294,66.6685007 C9.82118294,67.823934 10.2833563,68.9793673 11.0921596,69.9037139 L15.0206327,73.8321871 C15.829436,74.6409904 16.9848693,75.1031637 18.2558459,75.1031637 L34.6629986,75.1031637 C35.8184319,75.1031637 36.9738652,74.6409904 37.8982118,73.8321871 L41.3645117,70.3658872 C43.0976616,68.6327373 45.9862448,68.6327373 47.7193948,70.3658872 L47.7193948,70.3658872 C49.4525447,72.0990371 49.4525447,74.9876204 47.7193948,76.7207703 L41.9422283,82.4979367 C41.133425,83.30674 39.9779917,83.7689133 38.7070151,83.7689133 L13.8651994,83.7689133 C12.7097662,83.7689133 11.5543329,83.30674 10.6299862,82.4979367 L1.27097662,73.1389271 C0.462173315,72.3301238 0,71.1746905 0,70.0192572 L0,40.9023384 C0,39.7469051 0.462173315,38.5914718 1.27097662,37.6671252 L10.6299862,28.3081155 C11.4387895,27.4993122 12.5942228,27.0371389 13.8651994,27.0371389 L37.0894085,27.0371389 C38.2448418,27.0371389 39.4002751,27.4993122 40.3246217,28.3081155 L49.6836314,37.6671252 C50.4924347,38.5914718 51.0701513,39.7469051 51.0701513,40.9023384 Z M41.2489684,45.8707015 L41.2489684,44.1375516 C41.2489684,42.9821183 40.786795,41.826685 39.9779917,40.9023384 L35.9339752,36.9738652 C35.1251719,36.1650619 33.9697387,35.7028886 32.698762,35.7028886 L18.2558459,35.7028886 C17.1004127,35.7028886 15.9449794,36.1650619 15.0206327,36.9738652 L11.0921596,40.9023384 C10.2833563,41.7111417 9.82118294,42.866575 9.82118294,44.1375516 L9.82118294,45.8707015 C9.82118294,48.4126547 11.9009629,50.3768913 14.3273728,50.3768913 L36.7427785,50.3768913 C39.1691884,50.4924347 41.2489684,48.4126547 41.2489684,45.8707015 Z" id="Shape"></path>
                    <path d="M67.7083906,0.92434663 L67.7083906,0.92434663 C70.3658872,0.92434663 72.5612105,3.11966988 72.5612105,5.77716644 L72.5612105,8.66574966 C72.5612105,11.3232462 70.3658872,13.5185695 67.7083906,13.5185695 L67.7083906,13.5185695 C65.0508941,13.5185695 62.8555708,11.3232462 62.8555708,8.66574966 L62.8555708,5.77716644 C62.7400275,3.11966988 64.9353508,0.92434663 67.7083906,0.92434663 Z M67.7083906,27.0371389 L67.7083906,27.0371389 C70.3658872,27.0371389 72.5612105,29.2324622 72.5612105,31.8899587 L72.5612105,78.9160935 C72.5612105,81.5735901 70.3658872,83.7689133 67.7083906,83.7689133 L67.7083906,83.7689133 C65.0508941,83.7689133 62.8555708,81.5735901 62.8555708,78.9160935 L62.8555708,31.8899587 C62.7400275,29.2324622 64.9353508,27.0371389 67.7083906,27.0371389 Z" id="Shape"></path>
                    <path d="M122.475928,82.4979367 L104.682256,64.3576341 C101.909216,61.4690509 97.0563961,63.5488308 97.0563961,67.477304 L97.0563961,79.4938102 C97.0563961,81.9202201 95.0921596,83.8844567 92.6657497,83.8844567 L91.741403,83.8844567 C89.3149931,83.8844567 87.3507565,81.9202201 87.3507565,79.4938102 L87.3507565,4.39064649 C87.3507565,1.96423659 89.3149931,0 91.741403,0 L92.6657497,0 C95.0921596,0 97.0563961,1.96423659 97.0563961,4.39064649 L97.0563961,42.519945 C97.0563961,46.4484182 101.909216,48.5281981 104.682256,45.6396149 L121.667125,28.3081155 C122.475928,27.4993122 123.631362,26.9215956 124.786795,26.9215956 L124.786795,26.9215956 C128.715268,26.9215956 130.679505,31.6588721 127.906465,34.431912 L111.268226,51.5323246 C109.535076,53.2654746 109.535076,56.0385144 111.268226,57.7716644 L129.639615,76.258597 C132.412655,79.0316369 130.448418,83.7689133 126.519945,83.7689133 L125.711142,83.7689133 C124.440165,83.8844567 123.400275,83.4222834 122.475928,82.4979367 Z" id="Path"></path>
                    <path d="M191.917469,43.6753783 L191.917469,67.2462173 C191.917469,70.2503439 190.762036,73.0233838 188.682256,75.1031637 L183.251719,80.5337001 C181.171939,82.6134801 178.283356,83.7689133 175.394773,83.7689133 L157.6011,83.7689133 C154.596974,83.7689133 151.823934,82.6134801 149.744154,80.5337001 L144.313618,75.1031637 C142.233838,73.0233838 141.078404,70.1348006 141.078404,67.2462173 L141.078404,43.6753783 C141.078404,40.6712517 142.233838,37.8982118 144.313618,35.8184319 L149.744154,30.3878955 C151.823934,28.3081155 154.712517,27.1526823 157.6011,27.1526823 L175.394773,27.1526823 C178.3989,27.1526823 181.171939,28.3081155 183.251719,30.3878955 L188.682256,35.8184319 C190.762036,37.8982118 191.917469,40.6712517 191.917469,43.6753783 Z M182.211829,64.0110041 L182.211829,46.9105915 C182.211829,43.9064649 181.056396,41.133425 178.976616,39.0536451 L178.976616,39.0536451 C176.781293,36.9738652 174.008253,35.8184319 171.004127,35.8184319 L161.876204,35.8184319 C158.872077,35.8184319 156.099037,36.9738652 154.019257,39.0536451 L154.019257,39.0536451 C151.939477,41.133425 150.784044,44.0220083 150.784044,46.9105915 L150.784044,64.0110041 C150.784044,67.0151307 151.939477,69.7881706 154.019257,71.8679505 L154.019257,71.8679505 C156.099037,73.9477304 158.98762,75.1031637 161.876204,75.1031637 L171.004127,75.1031637 C174.008253,75.1031637 176.781293,73.9477304 178.861073,71.8679505 L178.861073,71.8679505 C181.056396,69.7881706 182.211829,66.8995873 182.211829,64.0110041 Z" id="Shape"></path>
                    <path d="M253.617607,38.4759285 L253.617607,80.5337001 C253.617607,82.3823934 252.115543,83.8844567 250.26685,83.8844567 L247.14718,83.8844567 C245.298487,83.8844567 243.796424,82.3823934 243.796424,80.5337001 L243.796424,42.173315 C243.796424,41.2489684 243.449794,40.4401651 242.756534,39.7469051 L239.752407,36.7427785 C239.174691,36.1650619 238.250344,35.7028886 237.325997,35.7028886 L226.464924,35.7028886 C225.540578,35.7028886 224.731774,36.0495186 224.038514,36.7427785 L215.141678,45.6396149 C214.563961,46.2173315 214.101788,47.1416781 214.101788,48.0660248 L214.101788,80.6492435 C214.101788,82.4979367 212.599725,84 210.751032,84 L207.631362,84 C205.782669,84 204.280605,82.4979367 204.280605,80.6492435 L204.280605,30.3878955 C204.280605,28.5392022 205.782669,27.0371389 207.631362,27.0371389 L209.942228,27.0371389 C211.790922,27.0371389 213.177442,28.4236589 213.292985,30.2723521 L213.292985,30.2723521 C213.408528,33.1609354 216.990371,34.5474553 219.070151,32.4676754 L223.576341,27.9614856 C224.154058,27.3837689 225.078404,26.9215956 226.002751,26.9215956 L242.063274,26.9215956 C242.98762,26.9215956 243.796424,27.2682256 244.489684,27.9614856 L252.577717,36.0495186 C253.270977,36.7427785 253.617607,37.5515818 253.617607,38.4759285 Z" id="Path"></path>
                    <path d="M272.335626,0.92434663 L272.335626,0.92434663 C274.993122,0.92434663 277.188446,3.11966988 277.188446,5.77716644 L277.188446,8.66574966 C277.188446,11.3232462 274.993122,13.5185695 272.335626,13.5185695 L272.335626,13.5185695 C269.678129,13.5185695 267.482806,11.3232462 267.482806,8.66574966 L267.482806,5.77716644 C267.482806,3.11966988 269.678129,0.92434663 272.335626,0.92434663 Z M272.335626,27.0371389 L272.335626,27.0371389 C274.993122,27.0371389 277.188446,29.2324622 277.188446,31.8899587 L277.188446,78.9160935 C277.188446,81.5735901 274.993122,83.7689133 272.335626,83.7689133 L272.335626,83.7689133 C269.678129,83.7689133 267.482806,81.5735901 267.482806,78.9160935 L267.482806,31.8899587 C267.482806,29.2324622 269.678129,27.0371389 272.335626,27.0371389 Z" id="Shape"></path>
                    <path d="M335.768913,76.8363136 L329.991747,82.6134801 C329.182944,83.4222834 328.02751,83.8844567 326.756534,83.8844567 L303.647868,83.8844567 C302.492435,83.8844567 301.337001,83.4222834 300.412655,82.6134801 L291.053645,73.2544704 C290.244842,72.4456671 289.782669,71.2902338 289.782669,70.0192572 L289.782669,40.9023384 C289.782669,39.7469051 290.244842,38.5914718 291.053645,37.6671252 L300.412655,28.3081155 C301.221458,27.4993122 302.376891,27.0371389 303.647868,27.0371389 L326.178817,27.0371389 C327.33425,27.0371389 328.489684,27.4993122 329.41403,28.3081155 L335.191197,34.085282 C336.924347,35.8184319 336.924347,38.7070151 335.191197,40.4401651 L335.191197,40.4401651 C333.458047,42.173315 330.569464,42.173315 328.836314,40.4401651 L325.485557,37.0894085 C324.676754,36.2806052 323.52132,35.8184319 322.250344,35.8184319 L308.038514,35.8184319 C306.883081,35.8184319 305.727648,36.2806052 304.803301,37.0894085 L300.990371,40.9023384 C300.181568,41.7111417 299.719395,42.866575 299.719395,44.1375516 L299.719395,66.6685007 C299.719395,67.823934 300.181568,68.9793673 300.990371,69.9037139 L304.803301,73.7166437 C305.612105,74.525447 306.767538,74.9876204 308.038514,74.9876204 L322.828061,74.9876204 C323.983494,74.9876204 325.138927,74.525447 326.063274,73.7166437 L329.41403,70.3658872 C331.14718,68.6327373 334.035763,68.6327373 335.768913,70.3658872 L335.768913,70.3658872 C337.502063,72.2145805 337.502063,75.1031637 335.768913,76.8363136 Z" id="Path"></path>
                    <path d="M394.927098,38.4759285 L394.927098,80.5337001 C394.927098,82.3823934 393.425034,83.8844567 391.576341,83.8844567 L389.265475,83.8844567 C387.416781,83.8844567 386.030261,82.4979367 385.914718,80.6492435 L385.914718,80.6492435 C385.799175,77.7606602 382.217331,76.3741403 380.137552,78.4539202 L375.631362,82.96011 C375.053645,83.5378267 374.129298,84 373.204952,84 L355.064649,84 C354.140303,84 353.331499,83.65337 352.638239,82.96011 L344.896836,75.218707 C344.31912,74.6409904 343.856946,73.7166437 343.856946,72.7922971 L343.856946,62.2778542 C343.856946,61.3535076 344.203576,60.5447043 344.896836,59.8514443 L351.482806,53.2654746 C352.060523,52.6877579 352.869326,52.3411279 353.678129,52.3411279 L381.755158,50.3768913 C383.488308,50.261348 384.874828,48.7592847 384.874828,47.0261348 L384.874828,42.0577717 C384.874828,41.133425 384.528198,40.3246217 383.834938,39.6313618 L380.715268,36.5116919 C380.137552,35.9339752 379.213205,35.4718019 378.288858,35.4718019 L360.726272,35.4718019 C359.801926,35.4718019 358.993122,35.8184319 358.299862,36.5116919 L354.024759,40.786795 C352.753783,42.0577717 350.558459,42.0577717 349.287483,40.786795 L347.669876,39.1691884 C346.3989,37.8982118 346.3989,35.7028886 347.669876,34.431912 L354.140303,27.9614856 C354.718019,27.3837689 355.642366,26.9215956 356.566713,26.9215956 L383.257221,26.9215956 C384.181568,26.9215956 384.990371,27.2682256 385.683631,27.9614856 L393.771664,36.0495186 C394.580468,36.7427785 394.927098,37.5515818 394.927098,38.4759285 Z M385.105915,62.8555708 L385.105915,62.3933975 C385.105915,60.4291609 383.488308,58.9270977 381.524072,59.042641 L358.530949,60.6602476 C357.722146,60.6602476 356.913343,61.0068776 356.451169,61.5845942 L354.949106,63.0866575 C354.371389,63.6643741 353.909216,64.5887208 353.909216,65.5130674 L353.909216,69.4415406 C353.909216,70.3658872 354.255846,71.1746905 354.949106,71.8679505 L357.259972,74.1788171 C357.837689,74.7565337 358.762036,75.218707 359.686382,75.218707 L372.858322,75.218707 C373.782669,75.218707 374.591472,74.872077 375.284732,74.1788171 L384.297111,65.1664374 C384.759285,64.7042641 385.105915,63.7799175 385.105915,62.8555708 Z" id="Shape"></path>
                </g>
            </g>
        </g>
    </g>
</svg>